<?xml version="1.0" encoding="utf-8"?>
<!-- Generator: Adobe Illustrator 25.1.0, SVG Export Plug-In . SVG Version: 6.00 Build 0)  -->
<svg version="1.1" id="Ñëîé_1" xmlns="http://www.w3.org/2000/svg" xmlns:xlink="http://www.w3.org/1999/xlink" x="0px" y="0px"
	 viewBox="0 0 600 400" style="enable-background:new 0 0 600 400;" xml:space="preserve">
<style type="text/css">
	.st0{fill:#0F054C;}
	.st1{opacity:0.9;fill:url(#SVGID_1_);}
	.st2{opacity:0.8;fill:url(#SVGID_2_);}
	.st3{opacity:0.1;fill:#42E8E0;}
	.st4{opacity:0.67;}
	.st5{opacity:0.9;}
	.st6{fill:#080344;}
	.st7{fill:#42E8E0;}
	.st8{fill:url(#SVGID_3_);}
	.st9{fill:url(#SVGID_4_);}
	.st10{fill:#24126A;}
	.st11{opacity:0.51;}
	.st12{fill:#453C9E;}
	.st13{fill:url(#SVGID_5_);}
	.st14{fill:url(#SVGID_6_);}
	.st15{fill:#FFFFFF;}
	.st16{opacity:0.15;}
	.st17{clip-path:url(#SVGID_8_);}
	.st18{fill:url(#SVGID_9_);}
	.st19{fill:url(#SVGID_10_);}
	.st20{opacity:0.5;}
	.st21{opacity:0.8;}
	.st22{opacity:0.5;fill:url(#SVGID_11_);}
</style>
<rect x="0" y="0" transform="matrix(-1 -1.224647e-16 1.224647e-16 -1 600 400)" class="st0" width="600" height="400"/>
<radialGradient id="SVGID_1_" cx="238.6668" cy="215.3332" r="317.881" gradientTransform="matrix(-1 0 0 1 600 0)" gradientUnits="userSpaceOnUse">
	<stop  offset="0" style="stop-color:#5761D7"/>
	<stop  offset="3.110474e-02" style="stop-color:#525BCE"/>
	<stop  offset="0.1763" style="stop-color:#3E41A6"/>
	<stop  offset="0.3263" style="stop-color:#2D2B85"/>
	<stop  offset="0.4803" style="stop-color:#201A6C"/>
	<stop  offset="0.6397" style="stop-color:#160E5A"/>
	<stop  offset="0.8079" style="stop-color:#11074F"/>
	<stop  offset="1" style="stop-color:#0F054C"/>
</radialGradient>
<polygon class="st1" points="0,400 600,400 600,0 0,0 "/>
<radialGradient id="SVGID_2_" cx="-13.0002" cy="93.5939" r="439.3419" gradientTransform="matrix(-1 0 0 1 600 0)" gradientUnits="userSpaceOnUse">
	<stop  offset="0" style="stop-color:#FF2C9C"/>
	<stop  offset="3.006321e-02" style="stop-color:#F62F9F"/>
	<stop  offset="0.2023" style="stop-color:#C63EB0"/>
	<stop  offset="0.3737" style="stop-color:#9E4BBE"/>
	<stop  offset="0.5413" style="stop-color:#7F54C9"/>
	<stop  offset="0.7039" style="stop-color:#695BD1"/>
	<stop  offset="0.8594" style="stop-color:#5C60D5"/>
	<stop  offset="1" style="stop-color:#5761D7"/>
</radialGradient>
<path class="st2" d="M583.4,39.7c-1.2-0.7-3.3-0.7-4.5,0c-0.9,0.5-1.2,1.3-0.7,2l-69.5,40.1l0,50.7l-16.9,9.8l0,55.1l-58,33.5
	l-9-5.2l44.7-25.8l0-30.2l-0.2-0.1l-50.9-29.4v-10.2l28.8-16.6c1.2,0.5,3,0.5,4.1-0.2c1.2-0.7,1.2-1.9,0-2.6c-1.2-0.7-3.3-0.7-4.5,0
	c-1.1,0.6-1.2,1.6-0.3,2.4l-28.8,16.6v11.1l0.2,0.1l50.9,29.4l0,29.4L434.9,219l0-12.6l15.5-8.9c1.2,0.5,3,0.5,4.1-0.2
	c1.2-0.7,1.2-1.9,0-2.6c-1.2-0.7-3.3-0.7-4.5,0c-1.1,0.6-1.2,1.6-0.3,2.4l-15.5,8.9l0,13.4l-10.2,5.9l-12.1-7l0-21.9l22.8-13.2
	l0-15.2l-0.2-0.1l-48-27.7c0.9-0.7,0.8-1.7-0.3-2.4c-1.2-0.7-3.3-0.7-4.5,0c-1.2,0.7-1.2,1.9,0,2.6c1.1,0.6,2.9,0.7,4.1,0.2
	l48.2,27.8l0,14.3l-22.1,12.8l0-15.1l-0.2-0.1l-29.4-17c0.9-0.7,0.8-1.7-0.3-2.4c-1.2-0.7-3.3-0.7-4.5,0c-1.2,0.7-1.2,1.9,0,2.6
	c1.1,0.6,2.9,0.7,4.1,0.2l29.5,17.1l0,37l-8.5-4.9l-14,8.1l-12.7-7.3l0-17.8l-0.2-0.1l-33.5-19.3l0-16.8c0.7,0,1.4-0.2,1.9-0.5
	c1.2-0.7,1.2-1.9,0-2.6c-1.2-0.7-3.3-0.7-4.5,0c-1.2,0.7-1.2,1.9,0,2.6c0.5,0.3,1.2,0.5,1.9,0.5l0,17.2l0.2,0.1l33.5,19.3l0,17
	l-54.5-31.5l0-33.4l29.6-17.1l27.1,0l0.1,0l46.6-26.9c1.2,0.5,3,0.5,4.1-0.2c1.2-0.7,1.2-1.9,0-2.6c-1.2-0.7-3.3-0.7-4.5,0
	c-1.1,0.6-1.2,1.7-0.3,2.4l-46.1,26.6l-25.7,0l85.5-49.4c1.2,0.5,3,0.5,4.1-0.2c1.2-0.7,1.2-1.9,0-2.6c-1.2-0.7-3.3-0.7-4.5,0
	c-1.1,0.6-1.2,1.7-0.3,2.4L320,148.1l0,34.2l0.2,0.1l67.7,39.1l-13.6,7.9l-115.6-66.8l0-39.8l-0.2-0.1l-39.3-22.7
	c0.9-0.7,0.8-1.7-0.3-2.4c-1.2-0.7-3.3-0.7-4.5,0c-1.2,0.7-1.2,1.9,0,2.6c1.1,0.6,2.9,0.7,4.1,0.2l39.5,22.8l0,39.8l0.2,0.1
	l115.5,66.7l-13,7.5l-114.4-66l-68.2,0l-42.6-24.6l0-37.8c0.4-0.1,0.9-0.2,1.2-0.4c1.2-0.7,1.2-1.9,0-2.6c-1.2-0.7-3.3-0.7-4.5,0
	c-1.2,0.7-1.2,1.9,0,2.6c0.7,0.4,1.6,0.6,2.5,0.5l0,38.1l0.2,0.1l43,24.8l68.2,0l96.5,55.7l-19.4,0l-32.9-19h-25.4l-0.1,0L229.6,229
	c-1.2-0.5-3-0.5-4.1,0.2c-1.2,0.7-1.2,1.9,0,2.6c1.2,0.7,3.3,0.7,4.5,0c1.1-0.6,1.2-1.7,0.3-2.4l34.8-20.1h25l32.9,19l20.8,0
	l16.1,9.3l-34.6,20l-9.9-5.7v-14.9l-25-14.4c0.9-0.7,0.8-1.7-0.3-2.4c-1.2-0.7-3.3-0.7-4.5,0c-1.2,0.7-1.2,1.9,0,2.6
	c1.1,0.6,2.9,0.7,4.1,0.2l25,14.4v14.1L288,236.2h-12.6l-0.1,0l-15.1,8.7c-1.2-0.5-3-0.5-4.1,0.2c-1.2,0.7-1.2,1.9,0,2.6
	c1.2,0.7,3.3,0.7,4.5,0c1.1-0.6,1.2-1.7,0.3-2.4l14.6-8.4h12.3l36.7,21.2l-6.7,3.9l21.3,12.3l-10,5.8h-15.1l-10.8-6.2
	c0.9-0.7,0.7-1.7-0.4-2.3c-1.2-0.7-3.3-0.7-4.5,0c-1.2,0.7-1.2,1.9,0,2.6c1.1,0.7,2.9,0.7,4.1,0.2l11.3,6.5h14l-25.4,14.7
	l-59.8-34.5l-43,0l-0.1,0l-24.2,14c-1.2-0.5-3-0.5-4.1,0.2c-1.2,0.7-1.2,1.9,0,2.6c1.2,0.7,3.3,0.7,4.5,0c1.1-0.6,1.2-1.7,0.3-2.4
	l23.8-13.7l42.7,0l46.1,26.6h-19.7L249.6,277c0.9-0.7,0.8-1.7-0.3-2.4c-1.2-0.7-3.3-0.7-4.5,0c-1.2,0.7-1.2,1.9,0,2.6
	c1.1,0.6,2.9,0.7,4.1,0.2l19.8,11.4h21.2l11.9,6.9l-30.4,17.5l-97.1,0L99,269.8c0.9-0.7,0.8-1.7-0.3-2.4c-1.2-0.7-3.3-0.7-4.5,0
	c-1.2,0.7-1.2,1.9,0,2.6c1.1,0.6,2.9,0.7,4.1,0.2l75.9,43.8l96,0l-12,7l-71.9,0l-0.1,0l-35.4,20.5c-1.2-0.5-3-0.5-4.1,0.2
	c-1.2,0.7-1.2,1.9,0,2.6c1.2,0.7,3.3,0.7,4.5,0c1.1-0.6,1.2-1.7,0.3-2.4l35-20.2l71.9,0l0.1,0l81.4-47l9,5.2l-85.6,49.4h-62.6
	l-0.1,0L125,373l-104.8,0L0,361.3v0.8l20.1,11.6l105.1,0l0.1,0l47.5-27.4l0,16.2l-31.3,18.1c-1.2-0.5-3-0.5-4.1,0.2
	c-1.2,0.7-1.2,1.9,0,2.6c1.2,0.7,3.3,0.7,4.5,0c1.1-0.6,1.2-1.7,0.3-2.4l31.3-18.1l0-16.9h-0.2l27.6-15.9h62.6l0.1,0l86-49.7
	l10.3,5.9l-167,96.4l0,17.4h0.7l0-17l167-96.4l12.7,7.3l-86.1,49.7l0,8.9l-15.3,8.8v20.4l-29.6,17.1c-1.2-0.5-3-0.5-4.1,0.2
	c-0.5,0.3-0.7,0.6-0.9,0.9h6.2c-0.1-0.2-0.3-0.5-0.5-0.7l29.6-17.1v-20.4l14.6-8.4l0,32.7l8.6,5l-15.5,8.9h1.4l14.8-8.5l14.8,8.5
	h1.4l-24.8-14.3l0-41.6l86.1-49.7l11.6,6.7l-60.9,35.2c-1.2-0.5-3-0.5-4.1,0.2c-1.2,0.7-1.2,1.9,0,2.6c1.2,0.7,3.3,0.7,4.5,0
	c1.1-0.6,1.2-1.6,0.3-2.4l60.9-35.2l11.2,6.4l-72.9,42.1h-19.8c-0.1-0.3-0.4-0.7-0.9-0.9c-1.2-0.7-3.3-0.7-4.5,0
	c-1.2,0.7-1.2,1.9,0,2.6c1.2,0.7,3.3,0.7,4.5,0c0.5-0.3,0.8-0.6,0.9-0.9h20l0.1,0l73.3-42.3l4.5,2.6l3.5-2l17.5,10.1l0,14l-14.4,8.3
	v0h-22.6l-0.1,0l-24.8,14.3c-1.2-0.5-3-0.5-4.1,0.2c-1.2,0.7-1.2,1.9,0,2.6c1.2,0.7,3.3,0.7,4.5,0c1.1-0.6,1.2-1.7,0.3-2.4
	l24.4-14.1H408l-42.4,24.5c-1.2-0.6-3-0.5-4.2,0.1c-1.2,0.7-1.2,1.9,0,2.6c1.2,0.7,3.3,0.7,4.5,0c1.1-0.6,1.2-1.6,0.4-2.3l52.9-30.6
	l0,6.8l-31.5,18.2v12.8l-25.6,14.8c-1.2-0.5-3-0.5-4.1,0.2c-1.2,0.7-1.2,1.9,0,2.6c1.2,0.7,3.3,0.7,4.5,0c1.1-0.6,1.2-1.7,0.3-2.4
	l25.6-14.8v-12.8l31.5-18.2l0-7.6l4.4-2.5l0-14.9l-17.5-10.1l11.5-6.6l35.9,20.8l0,23.6l-24.4,14.1c-1.2-0.6-3-0.5-4.2,0.1
	c-1.2,0.7-1.2,1.9,0,2.6c1.2,0.7,3.3,0.7,4.5,0c1.1-0.6,1.2-1.6,0.4-2.3l23.7-13.7l0,19.1l-18.7,10.8l0,23.1h0.7l0-22.7l18-10.4
	l0,33.1h0.7l0-77.8L419,301.4l12.9-7.4l47,27.1l0,64.6l22.6,13l0,1.3h0.7l0-1.7l-22.6-13l0-64.6l-47-27.1l9.6-5.5l63.4,36.6l0,55.1
	l35.1,20.2h1.4l-35.8-20.6l0-55.1l-63.4-36.6l15.5-8.9l105.5,60.9l0,27.4l36.2,20.9v-0.8l-35.4-20.5l0-27.4l-59.3-34.3h46.9
	l47.8,27.6v-0.8l-47.7-27.5H504l-44.9-25.9l18-10.4l38.6,22.3l62,0l22.3,12.9v-0.8l-4.9-2.8l4.9,0v-0.7l-6.1,0l-16-9.2l-62,0
	l-10.8-6.2h26.4l0.1,0l13.2-7.6l55.1,0l0.2,0.1v-0.8l-54,0l14.9-8.6c1.2,0.5,3,0.5,4.1-0.2c1.2-0.7,1.2-1.9,0-2.6
	c-1.2-0.7-3.3-0.7-4.5,0c-1.1,0.6-1.2,1.7-0.3,2.4l-28.9,16.7h-27.4l-26.1-15l9.6-5.6l-6.2-3.6h18l23.5,13.6
	c-0.9,0.7-0.8,1.7,0.3,2.4c1.2,0.7,3.3,0.7,4.5,0c1.2-0.7,1.2-1.9,0-2.6c-1.1-0.6-2.9-0.7-4.1-0.2l-24.1-13.9H480l-13.2-7.6l8.1-4.7
	h14.4l12.6-7.3h9.4l21.3,12.3c-1,0.7-0.9,1.7,0.3,2.4c1.2,0.7,3.3,0.7,4.5,0c1.2-0.7,1.2-1.9,0-2.6c-1.1-0.6-2.8-0.7-4-0.2
	l-21.8-12.6h-9.8l-12.6,7.3h-13l25.9-15h14l29.2,16.8l54.8,0v-0.7l-54.6,0L516.2,229h-14.4l-0.1,0l-35.7,20.6l-9.4-5.4l40.3-23.3
	l28.4,0l23.5,13.5l51.1,0v-0.7l-50.9,0l-22.2-12.8l73.1,0v-0.7l-103.1,0l-0.1,0L456,243.8l-10.6-6.1l56.2-32.5l98.4,0v-0.7l-71.7,0
	l71.7-41.4v-0.8l-73.1,42.2l-24.8,0l53.3-30.8v-6.8l25.5-14.7c1.2,0.5,3,0.5,4.1-0.2c1.2-0.7,1.2-1.9,0-2.6c-1.2-0.7-3.3-0.7-4.5,0
	c-1.1,0.6-1.2,1.6-0.3,2.4l-13.9,8l0-18.6l33.7-19.4V121l-34.4,19.8l0,19.4l-10.9,6.3v6.8l-53.7,31l0.2,0.3l-56.5,32.6l-10.3-5.9
	l58-33.5l0-55.1L600,80.6v-0.8l-90.6,52.3l0-49.8l69.4-40c0,0,0.1,0.1,0.1,0.1c1.2,0.7,3.3,0.7,4.5,0
	C584.6,41.6,584.6,40.4,583.4,39.7z M486,261.9L402.7,310l-83.3-48.1l83.3-48.1L486,261.9z"/>
<path class="st3" d="M600,125.9l-14.8,8.6l0,27.6l-131.6,76l-10-5.8l67.9-39.2l0-7l12-6.9l0-16.1l23.3-13.5c1,0.4,2.3,0.4,3.2-0.1
	c1-0.6,1-1.5,0-2c-1-0.6-2.6-0.6-3.5,0c-0.9,0.5-1,1.3-0.3,1.9l-23.3,13.5l0,16.1l-11.5,6.6l0-25.8l-0.1-0.1l-6.6-3.8l39.8-23
	l0-25.8l28.3-16.3c1,0.4,2.3,0.4,3.2-0.1c1-0.6,1-1.5,0-2c-1-0.6-2.6-0.6-3.5,0c-0.9,0.5-1,1.3-0.3,1.9l-28.3,16.3l0,25.8l-39.8,23
	L439.4,118l0-28.9c0.5,0,1.1-0.2,1.5-0.4c1-0.6,1-1.5,0-2c-1-0.6-2.6-0.6-3.5,0c-1,0.6-1,1.5,0,2c0.4,0.2,0.9,0.4,1.5,0.4l0,29.2
	l0.1,0.1l38.9,22.5l-28.4,0l-22.9-13.2c0.7-0.6,0.6-1.4-0.3-1.9c-1-0.6-2.6-0.6-3.5,0c-1,0.6-1,1.5,0,2c0.9,0.5,2.3,0.6,3.2,0.1
	l23.3,13.5l29.5,0v0l32,18.5l0,32.8L443,231.9l-9.1-5.3l48-27.7c1,0.4,2.3,0.4,3.2-0.1c1-0.6,1-1.5,0-2c-1-0.6-2.6-0.6-3.5,0
	c-0.9,0.5-1,1.3-0.3,1.9l-48,27.7l-8.8-5.1l57.5-33.2l15.6,0c0.1,0.3,0.3,0.5,0.7,0.7c1,0.6,2.6,0.6,3.5,0c1-0.6,1-1.5,0-2
	c-1-0.6-2.6-0.6-3.5,0c-0.4,0.2-0.6,0.5-0.7,0.7l-15.8,0l-0.1,0L424,221l-3.5-2l-0.1,0.1l-2.6,1.5l-13.8-7.9l0-11.1l11.4-6.6v0
	l17.8,0l19.7-11.3c1,0.4,2.3,0.4,3.2-0.1c1-0.6,1-1.5,0-2c-1-0.6-2.6-0.6-3.5,0c-0.9,0.5-1,1.3-0.3,1.9L433,194.4l-16.8,0l33.4-19.3
	c1,0.4,2.4,0.4,3.3-0.1c1-0.6,1-1.5,0-2c-1-0.6-2.6-0.6-3.5,0c-0.9,0.5-1,1.3-0.3,1.8l-41.7,24.1v-5.3l24.8-14.3v-10.1l20.2-11.7
	c1,0.4,2.3,0.4,3.2-0.1c1-0.6,1-1.5,0-2c-1-0.6-2.6-0.6-3.5,0c-0.9,0.5-1,1.3-0.3,1.9l-20.2,11.7v10.1l-24.8,14.3v6l-3.5,2l0,11.7
	l13.8,7.9l-9,5.2l-28.3-16.4l0-18.6L399,180c1,0.4,2.4,0.4,3.3-0.1c1-0.6,1-1.5,0-2c-1-0.6-2.6-0.6-3.5,0c-0.9,0.5-1,1.3-0.3,1.8
	l-18.7,10.8l0-15l14.8-8.5l0-28.3c0.5,0,1.1-0.2,1.5-0.4c1-0.6,1-1.5,0-2c-1-0.6-2.6-0.6-3.5,0c-1,0.6-1,1.5,0,2
	c0.4,0.2,0.9,0.4,1.5,0.4l0,27.9l-14.2,8.2l0-49.8h-0.6l0,85.1l28.3,16.4l-10.2,5.9l-37-21.4l0-50.9l-17.8-10.3l0-19.2l-15.7-9.1
	c0.7-0.6,0.6-1.4-0.3-1.9c-1-0.6-2.6-0.6-3.5,0c-1,0.6-1,1.5,0,2c0.9,0.5,2.3,0.6,3.2,0.1l15.7,9.1l0,19.2l17.8,10.3l0,50.9l37,21.4
	l-7.5,4.3l-50-28.9l0-43.4l-0.1-0.1L295,139c0.7-0.6,0.6-1.4-0.3-1.9c-1-0.6-2.6-0.6-3.5,0c-1,0.6-1,1.5,0,2
	c0.9,0.5,2.3,0.6,3.2,0.1l44.4,25.6l0,43.4l0.1,0.1l49.8,28.8l-12.2,7l-83.1-48v-21.6l-0.1-0.1l-69.6-40.2c0.7-0.6,0.6-1.4-0.3-1.9
	c-1-0.6-2.6-0.6-3.5,0c-1,0.6-1,1.5,0,2c0.9,0.5,2.3,0.6,3.2,0.1l69.7,40.3v21.6l0.1,0.1l46.6,26.9l-37,0l-42.8-24.7
	c0.7-0.6,0.6-1.4-0.3-1.9c-1-0.6-2.6-0.6-3.5,0c-1,0.6-1,1.5,0,2c0.9,0.5,2.3,0.6,3.2,0.1l43.2,25l38.1,0l35.4,20.4l-14.2,8.2
	l-30.4-17.6h-48.9l-55.6-32.1l-30.8,0l-12.6-7.3c0.7-0.6,0.6-1.4-0.3-1.9c-1-0.6-2.6-0.6-3.5,0c-1,0.6-1,1.5,0,2
	c0.9,0.5,2.3,0.6,3.2,0.1l13,7.5l30.8,0l42,24.2h-36.3L215,217.8c0.7-0.6,0.6-1.4-0.3-1.9c-1-0.6-2.6-0.6-3.5,0c-1,0.6-1,1.5,0,2
	c0.9,0.5,2.3,0.6,3.2,0.1l17.9,10.3h37.4l12.6,7.3h48.9l8.5,4.9H319l-0.1,0l-10.4,6l-43.4,0l-12.2-7.1h-24.6
	c-0.1-0.3-0.3-0.5-0.7-0.7c-1-0.6-2.6-0.6-3.5,0c-1,0.6-1,1.5,0,2c1,0.6,2.6,0.6,3.5,0c0.4-0.2,0.6-0.5,0.7-0.7h24.4l12.2,7.1
	l42.6,0l-11.7,6.8c-1-0.4-2.3-0.4-3.2,0.1c-1,0.6-1,1.5,0,2c1,0.6,2.6,0.6,3.5,0c0.9-0.5,1-1.3,0.3-1.9l22.8-13.2h21.6l20.5,11.9
	l-7.6,4.4l0.4,0.2l4.5,2.6l-14.2,0l-18.6-10.7c0.7-0.6,0.6-1.4-0.3-1.9c-1-0.6-2.6-0.6-3.5,0c-1,0.6-1,1.5,0,2
	c0.9,0.5,2.3,0.6,3.2,0.1l19,11l15.3,0l10.4,6l-6.4,3.7h-11.3l-0.1,0l-9.9,5.7h-7.4l-16.8-9.7c0.8-0.6,0.7-1.4-0.2-1.9
	c-1-0.6-2.6-0.6-3.5,0c-1,0.6-1,1.5,0,2c0.9,0.5,2.2,0.6,3.2,0.2l17.2,9.9h7.7l0.1,0l9.9-5.7h10.2l-20.4,11.8h-11l-23-13.3h-69.3
	l-43-24.8c0.7-0.6,0.7-1.4-0.2-1.9c-1-0.6-2.6-0.6-3.5,0c-1,0.6-1,1.5,0,2c0.9,0.5,2.2,0.6,3.2,0.2l43.4,25.1H308l23,13.3h11.3
	l0.1,0l28.1-16.2l7.4,4.3l-31.8,18.3h-22.4l-18.5-10.7l-47.5,0c-0.1-0.3-0.3-0.5-0.7-0.7c-1-0.6-2.6-0.6-3.5,0c-1,0.6-1,1.5,0,2
	c1,0.6,2.6,0.6,3.5,0c0.4-0.2,0.6-0.5,0.7-0.7l47.3,0l17.5,10.1h-66.9l-0.1,0l-63.7,36.8c-1-0.4-2.3-0.4-3.2,0.1c-1,0.6-1,1.5,0,2
	c1,0.6,2.6,0.6,3.5,0c0.9-0.5,1-1.3,0.3-1.9l63.4-36.6h90.4l0.1,0l32.1-18.5l8.4,4.8l-44.3,25.6h-78l-0.1,0l-68.3,39.4l-79.6,0
	L70,314.9c0.7-0.6,0.6-1.4-0.3-1.9c-1-0.6-2.6-0.6-3.5,0c-1,0.6-1,1.5,0,2c0.9,0.5,2.3,0.6,3.2,0.1l46.8,27l79.9,0l0.1,0l68.3-39.4
	h56.8L238,350.9l0,12.7l-33.3,19.2c-1-0.4-2.3-0.4-3.2,0.1c-1,0.6-1,1.5,0,2c1,0.6,2.6,0.6,3.5,0c0.9-0.5,1-1.3,0.3-1.9l33.3-19.2
	l0-12.7l84-48.5h19.5l-42,24.3v5.3L279.9,344c-1-0.4-2.3-0.4-3.2,0.1c-1,0.6-1,1.5,0,2c1,0.6,2.6,0.6,3.5,0c0.9-0.5,1-1.3,0.3-1.9
	l10.9-6.3v14.6l-63.2,36.5c-1-0.4-2.3-0.4-3.2,0.1c-1,0.6-1,1.5,0,2c1,0.6,2.6,0.6,3.5,0c0.9-0.5,1-1.3,0.3-1.9l63.2-36.5v-15.3
	l8.6-5v-5.3l42.4-24.5l-0.1-0.2l44.5-25.7l8.1,4.7L349.7,308l0,43.4L265.6,400h1.1l69.6-40.2l0,39.3l-1.6,0.9h1.1l1-0.6l0-39.9
	l13.3-7.7l0-43.4l45.7-26.4l7.1,4.1l-35.3,20.4l0,23.8l0.1,0.1l40.1,23.1l0,8.1l-22.7,13.1c-1-0.4-2.3-0.4-3.2,0.1c-1,0.6-1,1.5,0,2
	c1,0.6,2.6,0.6,3.5,0c0.9-0.5,1-1.3,0.3-1.9l22.7-13.1l0-8.7l-0.1-0.1l-40.1-23.1l0-23.2l26.6-15.4l0,9.9l-12.2,7.1
	c-1-0.4-2.3-0.4-3.2,0.1c-1,0.6-1,1.5,0,2c1,0.6,2.6,0.6,3.5,0c0.9-0.5,1-1.3,0.3-1.9l12.2-7.1l0-10.6l8.1-4.7l9.5,5.5l0,17.3
	l-18,10.4v11.9l0.1,0.1l37.8,21.8c-0.7,0.6-0.6,1.4,0.3,1.9c1,0.6,2.6,0.6,3.5,0c1-0.6,1-1.5,0-2c-0.9-0.5-2.3-0.6-3.2-0.1l-38-21.9
	v-11.3l17.4-10.1l0,11.9l23.3,13.4c-0.7,0.6-0.6,1.4,0.3,1.9c1,0.6,2.6,0.6,3.5,0c1-0.6,1-1.5,0-2c-0.9-0.5-2.3-0.6-3.2-0.1
	l-23.3-13.4l0-29.2l6.7,3.9l0.1-0.1l10.9-6.3l10,5.8l0,14l26.5,15.3l0,13.2c-0.5,0-1.1,0.2-1.5,0.4c-1,0.6-1,1.5,0,2
	c1,0.6,2.6,0.6,3.5,0c1-0.6,1-1.5,0-2c-0.4-0.2-0.9-0.4-1.5-0.4l0-13.5L442,309.1l0-13.4l43,24.8l0,26.3l-23.3,13.5h-21.4l-0.1,0
	l-36.7,21.2c-1-0.4-2.3-0.4-3.2,0.1c-1,0.6-1,1.5,0,2c1,0.6,2.6,0.6,3.5,0c0.9-0.5,1-1.3,0.3-1.9l36.4-21h20.3l-67.4,38.9
	c-1-0.4-2.3-0.4-3.2,0.1c0,0,0,0,0,0h4.1l91.4-52.8l0-26.9l-0.1-0.1l-53.4-30.8l10.7-6.2l91.1,52.6l0,31.4l31.1,18
	c-0.7,0.6-0.6,1.4,0.3,1.9c1,0.6,2.6,0.6,3.5,0c1-0.6,1-1.5,0-2c-0.9-0.5-2.3-0.6-3.2-0.1l-31.1-18l0-31.4l-0.1-0.1l-91-52.5
	l10.2-5.9l90.1,52h53.8l2.5,1.5v-0.6l-2.4-1.4h-53.8l-76.1-43.9h15.3l26,15l20,0l0.1,0l27.7-16c1,0.4,2.3,0.4,3.2-0.1
	c1-0.6,1-1.5,0-2c-1-0.6-2.6-0.6-3.5,0c-0.9,0.5-1,1.3-0.3,1.9l-27.4,15.8l-19.7,0l-26-15h-16.4l-12.7-7.3l27.3-15.8l7.8,4.5l0,11.8
	l19.7,11.4c-0.7,0.6-0.6,1.4,0.3,1.9c1,0.6,2.6,0.6,3.5,0c1-0.6,1-1.5,0-2c-0.9-0.5-2.3-0.6-3.2-0.1l-19.7-11.4l0-11.1l21,12.1h10
	l0.1,0l11.9-6.9c1,0.4,2.3,0.4,3.2-0.1c1-0.6,1-1.5,0-2c-1-0.6-2.6-0.6-3.5,0c-0.9,0.5-1,1.3-0.3,1.9l-11.5,6.7H511L482,260.5l5.3-3
	l-0.4-0.2l-16.4-9.4l7.9-4.5h11.9l8.5,4.9c-0.7,0.6-0.6,1.3,0.3,1.8c1,0.6,2.6,0.6,3.5,0c1-0.6,1-1.5,0-2c-0.9-0.5-2.3-0.6-3.3-0.1
	l-8.9-5.1h-11.1l20-11.6l47.2,27.2h33.9l0.1,0l19.1-11c0.1,0.1,0.3,0.1,0.4,0.1v-2.6c-0.3,0.1-0.5,0.2-0.7,0.3
	c-0.9,0.5-1,1.3-0.3,1.9l-18.8,10.8h-33.6l-36.4-21l15.6,0l15.2,8.8c-0.7,0.6-0.6,1.4,0.3,1.9c1,0.6,2.6,0.6,3.5,0c1-0.6,1-1.5,0-2
	c-0.9-0.5-2.3-0.6-3.2-0.1l-15.6-9l-16.7,0l-9.4-5.4l23.9-13.8l76.1,0v-0.6l-75.2,0l9.5-5.5l56.6,0l0.1,0l9-5.2v-0.6l-9.2,5.3
	l-56.6,0l-0.1,0l-64.2,37.1l-7.1-4.1l67.5-39l49.3,0l0.1,0l20.3-11.7V192l-20.5,11.9l-49.3,0l-0.1,0L462.2,243l-8.1-4.7l131.6-76
	l0-27.6l14.3-8.2V125.9z M486.2,257.5l-65.7,37.9l-65.7-37.9l65.7-37.9L486.2,257.5z"/>
<g>
	<g class="st4">
		<polygon class="st0" points="403.7,366.9 234.9,269.5 403.6,172 572.4,269.5 		"/>
	</g>
	<g class="st4">
		<polygon class="st0" points="403.7,351.8 261,269.5 403.6,187.1 546.3,269.5 		"/>
	</g>
	<g class="st5">
		<polygon class="st6" points="403.7,334.2 291.5,269.5 403.6,204.7 515.8,269.5 		"/>
	</g>
</g>
<g>
	<g>
		<path class="st7" d="M426.7,336.3c-1.1,0-2.2-0.3-3-0.8l-133.9-77.3c-0.9-0.5-1.5-1.3-1.5-2c0-0.7,0.4-1.2,1.1-1.7l79.9-46.1
			c1.4-0.8,3.8-0.7,5.4,0.2l133.9,77.3c0.9,0.5,1.5,1.3,1.5,2c0,0.7-0.4,1.2-1.1,1.7l-79.9,46.1
			C428.5,336.2,427.6,336.3,426.7,336.3z M290.2,257.4l133.9,77.3c1.3,0.8,3.4,0.8,4.5,0.2l79.9-46.1c0.3-0.2,0.6-0.4,0.6-0.8
			c0-0.4-0.4-0.9-1-1.2l-133.9-77.3c-1.3-0.8-3.4-0.8-4.5-0.2l-79.9,46.1c-0.3,0.2-0.6,0.4-0.6,0.8
			C289.3,256.6,289.6,257.1,290.2,257.4L290.2,257.4z"/>
		<g>
			<g>
				<g>
					<g>
						<g>
							
								<linearGradient id="SVGID_3_" gradientUnits="userSpaceOnUse" x1="29.6969" y1="175.1898" x2="186.0214" y2="175.1898" gradientTransform="matrix(-1 0 0 1 560.7101 0)">
								<stop  offset="0" style="stop-color:#C0BFF6"/>
								<stop  offset="0.2938" style="stop-color:#C5C4F7"/>
								<stop  offset="0.6399" style="stop-color:#D3D2F9"/>
								<stop  offset="1" style="stop-color:#E9E9FD"/>
							</linearGradient>
							<path class="st8" d="M374.7,184.9l16.9-100.5l-1.4-0.6l2-1.2l0,0c0.4-0.3,1-0.2,1.6,0.1L529.2,161c1.1,0.6,2,2.3,1.8,3.4
								l-17.1,101.3c-0.1,0.5-0.4,0.9-0.7,1l0,0l-2,1.2l-0.3-1.9l0.1,0l-134.5-77.7C375.4,187.7,374.5,186.1,374.7,184.9z"/>
							
								<linearGradient id="SVGID_4_" gradientUnits="userSpaceOnUse" x1="29.6979" y1="215.28" x2="56.5404" y2="215.28" gradientTransform="matrix(-1 0 0 1 560.7101 0)">
								<stop  offset="0" style="stop-color:#5761D7"/>
								<stop  offset="0.1779" style="stop-color:#5C66D9"/>
								<stop  offset="0.3876" style="stop-color:#6A73DF"/>
								<stop  offset="0.6134" style="stop-color:#8289E8"/>
								<stop  offset="0.849" style="stop-color:#A3A7F5"/>
								<stop  offset="1" style="stop-color:#BCBEFF"/>
							</linearGradient>
							<path class="st9" d="M528.5,163.7l2.2-1c0.2,0.6,0.4,1.2,0.3,1.7l-17.1,101.3c-0.1,0.5-0.4,0.9-0.7,1l0,0l-2,1.2l-0.3-1.9
								l0.1,0l-6.8-3.9L528.5,163.7z"/>
							<path class="st10" d="M374.4,189.6l135.3,78.1c1,0.6,1.9,0.3,2.1-0.8l17.1-101.3c0.2-1.2-0.6-2.8-1.8-3.4L391.8,84
								c-1-0.6-1.9-0.3-2.1,0.8l-17.1,101.3C372.4,187.3,373.2,188.9,374.4,189.6z"/>
							<g class="st11">
								<polygon class="st12" points="391.3,85.9 527.3,164.4 510.1,265.9 374.2,187.5 								"/>
							</g>
						</g>
						<g>
							
								<linearGradient id="SVGID_5_" gradientUnits="userSpaceOnUse" x1="50.6408" y1="259.0211" x2="271.4221" y2="259.0211" gradientTransform="matrix(-1 0 0 1 560.7101 0)">
								<stop  offset="0" style="stop-color:#5761D7"/>
								<stop  offset="0.1779" style="stop-color:#5C66D9"/>
								<stop  offset="0.3876" style="stop-color:#6A73DF"/>
								<stop  offset="0.6134" style="stop-color:#8289E8"/>
								<stop  offset="0.849" style="stop-color:#A3A7F5"/>
								<stop  offset="1" style="stop-color:#BCBEFF"/>
							</linearGradient>
							<path class="st13" d="M289.3,237.5l7.4,3.9l74.1-42.8c1.2-0.7,3.4-0.6,4.8,0.2l127.7,73.7c1.2-0.7,6.8-3.4,6.8-3.4l-2.7,4.4
								c0,0,0,0,0,0c-0.1,0.3-0.4,0.6-0.8,0.8l-78,45c-1.2,0.7-3.4,0.6-4.8-0.2l-130.7-75.5c-0.6-0.3-0.9-0.7-1.1-1.2l0,0
								L289.3,237.5z"/>
							
								<linearGradient id="SVGID_6_" gradientUnits="userSpaceOnUse" x1="-47.4437" y1="252.9843" x2="277.8851" y2="252.9843" gradientTransform="matrix(-1 0 0 1 560.7101 0)">
								<stop  offset="0" style="stop-color:#C0BFF6"/>
								<stop  offset="0.2938" style="stop-color:#C5C4F7"/>
								<stop  offset="0.6399" style="stop-color:#D3D2F9"/>
								<stop  offset="1" style="stop-color:#E9E9FD"/>
							</linearGradient>
							<path class="st14" d="M290.4,238.7l133.9,77.3c1.5,0.8,3.7,0.9,5,0.2l79.9-46.1c1.3-0.7,1.1-2-0.4-2.9L375,189.9
								c-1.5-0.8-3.7-0.9-5-0.2l-79.9,46.1C288.8,236.6,289,237.9,290.4,238.7z"/>
							<path class="st15" d="M290.4,238.1l133.9,77.3c1.5,0.8,3.7,0.9,5,0.2l79.9-46.1c0.4-0.3,0.7-0.6,0.8-0.9
								c0.1,0.6-0.1,1.1-0.8,1.5l-79.9,46.1c-1.3,0.7-3.5,0.6-5-0.2l-133.9-77.3c-1-0.5-1.3-1.3-1.2-1.9
								C289.4,237.3,289.8,237.7,290.4,238.1z"/>
						</g>
					</g>
					<g class="st16">
						<defs>
							<polygon id="SVGID_7_" class="st16" points="527.3,164.4 391.3,85.9 374.2,187.5 510.1,265.9 							"/>
						</defs>
						<clipPath id="SVGID_8_">
							<use xlink:href="#SVGID_7_"  style="overflow:visible;"/>
						</clipPath>
						<g class="st17">
							<g>
								
									<linearGradient id="SVGID_9_" gradientUnits="userSpaceOnUse" x1="-34.2565" y1="210.4317" x2="186.5247" y2="210.4317" gradientTransform="matrix(-1 0 0 1 560.7101 0)">
									<stop  offset="0" style="stop-color:#5761D7"/>
									<stop  offset="0.1779" style="stop-color:#5C66D9"/>
									<stop  offset="0.3876" style="stop-color:#6A73DF"/>
									<stop  offset="0.6134" style="stop-color:#8289E8"/>
									<stop  offset="0.849" style="stop-color:#A3A7F5"/>
									<stop  offset="1" style="stop-color:#BCBEFF"/>
								</linearGradient>
								<path class="st18" d="M374.2,188.9l7.4,3.9l74.1-42.8c1.2-0.7,3.4-0.6,4.8,0.2L588.2,224c1.2-0.7,6.8-3.4,6.8-3.4l-2.7,4.4
									c0,0,0,0,0,0c-0.1,0.3-0.4,0.6-0.8,0.8l-78,45c-1.2,0.7-3.4,0.6-4.8-0.2L378,195.2c-0.6-0.3-0.9-0.7-1.1-1.2l0,0
									L374.2,188.9z"/>
								
									<linearGradient id="SVGID_10_" gradientUnits="userSpaceOnUse" x1="39.9267" y1="204.3948" x2="260.8257" y2="204.3948" gradientTransform="matrix(-1 0 0 1 560.7101 0)">
									<stop  offset="0" style="stop-color:#C0BFF6"/>
									<stop  offset="0.2938" style="stop-color:#C5C4F7"/>
									<stop  offset="0.6399" style="stop-color:#D3D2F9"/>
									<stop  offset="1" style="stop-color:#E9E9FD"/>
								</linearGradient>
								<path class="st19" d="M375.3,190.1l133.9,77.3c1.5,0.8,3.7,0.9,5,0.2l79.9-46.1c1.3-0.7,1.1-2-0.4-2.9l-133.9-77.3
									c-1.5-0.8-3.7-0.9-5-0.2L375,187.3C373.7,188,373.9,189.3,375.3,190.1z"/>
								<path class="st15" d="M593.8,218.7l-133.9-77.3c-0.9-0.5-2.2-0.8-3.3-0.7c0.8,0.1,1.7,0.3,2.3,0.7l133.9,77.3
									c1.5,0.8,1.6,2.1,0.4,2.9l-79.9,46.1c-0.5,0.3-1,0.4-1.6,0.5c1,0.1,1.9-0.1,2.6-0.5l79.9-46.1
									C595.4,220.8,595.3,219.5,593.8,218.7z"/>
							</g>
							<g class="st20">
								<path class="st10" d="M445.5,176.8l-4.3-2.5c-0.3-0.2-0.9-0.2-1.3,0l-4.8,2.8c-0.4,0.2-0.4,0.6-0.1,0.8l4.3,2.5
									c0.3,0.2,0.9,0.2,1.3,0l4.8-2.8C445.8,177.4,445.8,177,445.5,176.8z"/>
								<path class="st10" d="M452.1,180.6l-4.3-2.5c-0.3-0.2-0.9-0.2-1.3,0l-4.8,2.8c-0.4,0.2-0.4,0.6-0.1,0.8l4.3,2.5
									c0.3,0.2,0.9,0.2,1.3,0l4.8-2.8C452.4,181.2,452.5,180.8,452.1,180.6z"/>
								<path class="st10" d="M458.7,184.5l-4.3-2.5c-0.3-0.2-0.9-0.2-1.3,0l-4.8,2.8c-0.4,0.2-0.4,0.6-0.1,0.8l4.3,2.5
									c0.3,0.2,0.9,0.2,1.3,0l4.8-2.8C459.1,185,459.1,184.7,458.7,184.5z"/>
								<path class="st10" d="M453.7,189.6l-4.3-2.5c-0.3-0.2-0.9-0.2-1.3,0l-4,2.3c-0.4,0.2-0.4,0.6-0.1,0.8l4.3,2.5
									c0.3,0.2,0.9,0.2,1.3,0l4-2.3C454,190.1,454,189.8,453.7,189.6z"/>
								<path class="st10" d="M460.3,193.4l-4.3-2.5c-0.3-0.2-0.9-0.2-1.3,0l-4,2.3c-0.4,0.2-0.4,0.6-0.1,0.8l4.3,2.5
									c0.3,0.2,0.9,0.2,1.3,0l4-2.3C460.7,193.9,460.7,193.6,460.3,193.4z"/>
								<path class="st10" d="M467,197.2l-4.3-2.5c-0.3-0.2-0.9-0.2-1.3,0l-4,2.3c-0.4,0.2-0.4,0.6-0.1,0.8l4.3,2.5
									c0.3,0.2,0.9,0.2,1.3,0l4-2.3C467.3,197.8,467.3,197.4,467,197.2z"/>
								<path class="st10" d="M473.6,201.1l-4.3-2.5c-0.3-0.2-0.9-0.2-1.3,0l-4,2.3c-0.4,0.2-0.4,0.6-0.1,0.8l4.3,2.5
									c0.3,0.2,0.9,0.2,1.3,0l4-2.3C473.9,201.6,473.9,201.3,473.6,201.1z"/>
								<path class="st10" d="M480.2,204.9l-4.3-2.5c-0.3-0.2-0.9-0.2-1.3,0l-4,2.3c-0.4,0.2-0.4,0.6-0.1,0.8l4.3,2.5
									c0.3,0.2,0.9,0.2,1.3,0l4-2.3C480.5,205.4,480.6,205.1,480.2,204.9z"/>
								<path class="st10" d="M486.9,208.7l-4.3-2.5c-0.3-0.2-0.9-0.2-1.3,0l-4,2.3c-0.4,0.2-0.4,0.6-0.1,0.8l4.3,2.5
									c0.3,0.2,0.9,0.2,1.3,0l4-2.3C487.2,209.2,487.2,208.9,486.9,208.7z"/>
								<path class="st10" d="M493.5,212.5l-4.3-2.5c-0.3-0.2-0.9-0.2-1.3,0l-4,2.3c-0.4,0.2-0.4,0.6-0.1,0.8l4.3,2.5
									c0.3,0.2,0.9,0.2,1.3,0l4-2.3C493.8,213.1,493.8,212.7,493.5,212.5z"/>
								<path class="st10" d="M500.1,216.4l-4.3-2.5c-0.3-0.2-0.9-0.2-1.3,0l-4,2.3c-0.4,0.2-0.4,0.6-0.1,0.8l4.3,2.5
									c0.3,0.2,0.9,0.2,1.3,0l4-2.3C500.4,216.9,500.5,216.6,500.1,216.4z"/>
								<path class="st10" d="M506.7,220.2l-4.3-2.5c-0.3-0.2-0.9-0.2-1.3,0l-4,2.3c-0.4,0.2-0.4,0.6-0.1,0.8l4.3,2.5
									c0.3,0.2,0.9,0.2,1.3,0l4-2.3C507.1,220.7,507.1,220.4,506.7,220.2z"/>
								<path class="st10" d="M513.4,224l-4.3-2.5c-0.3-0.2-0.9-0.2-1.3,0l-4,2.3c-0.4,0.2-0.4,0.6-0.1,0.8l4.3,2.5
									c0.3,0.2,0.9,0.2,1.3,0l4-2.3C513.7,224.6,513.7,224.2,513.4,224z"/>
								<path class="st10" d="M450.9,195l-4.3-2.5c-0.3-0.2-0.9-0.2-1.3,0l-4,2.3c-0.4,0.2-0.4,0.6-0.1,0.8l4.3,2.5
									c0.3,0.2,0.9,0.2,1.3,0l4-2.3C451.3,195.6,451.3,195.2,450.9,195z"/>
								<path class="st10" d="M444.2,191.1l-4.3-2.5c-0.3-0.2-0.9-0.2-1.3,0l-4,2.3c-0.4,0.2-0.4,0.6-0.1,0.8l4.3,2.5
									c0.3,0.2,0.9,0.2,1.3,0l4-2.3C444.5,191.7,444.6,191.3,444.2,191.1z"/>
								<path class="st10" d="M437.5,187.3l-9.2-5.3c-0.3-0.2-0.9-0.2-1.3,0l-4,2.3c-0.4,0.2-0.4,0.6-0.1,0.8l9.2,5.3
									c0.3,0.2,0.9,0.2,1.3,0l4-2.3C437.8,187.8,437.8,187.5,437.5,187.3z"/>
								<path class="st10" d="M429.6,189.8l-7.5-4.3c-0.3-0.2-0.9-0.2-1.3,0l-4,2.3c-0.4,0.2-0.4,0.6-0.1,0.8l7.5,4.3
									c0.3,0.2,0.9,0.2,1.3,0l4-2.3C430,190.3,430,190,429.6,189.8z"/>
								<path class="st10" d="M457.6,198.9l-4.3-2.5c-0.3-0.2-0.9-0.2-1.3,0l-4,2.3c-0.4,0.2-0.4,0.6-0.1,0.8l4.3,2.5
									c0.3,0.2,0.9,0.2,1.3,0l4-2.3C457.9,199.4,457.9,199.1,457.6,198.9z"/>
								<path class="st10" d="M464.2,202.7l-4.3-2.5c-0.3-0.2-0.9-0.2-1.3,0l-4,2.3c-0.4,0.2-0.4,0.6-0.1,0.8l4.3,2.5
									c0.3,0.2,0.9,0.2,1.3,0l4-2.3C464.5,203.2,464.5,202.9,464.2,202.7z"/>
								<path class="st10" d="M470.8,206.5l-4.3-2.5c-0.3-0.2-0.9-0.2-1.3,0l-4,2.3c-0.4,0.2-0.4,0.6-0.1,0.8l4.3,2.5
									c0.3,0.2,0.9,0.2,1.3,0l4-2.3C471.2,207.1,471.2,206.7,470.8,206.5z"/>
								<path class="st10" d="M477.5,210.3l-4.3-2.5c-0.3-0.2-0.9-0.2-1.3,0l-4,2.3c-0.4,0.2-0.4,0.6-0.1,0.8l4.3,2.5
									c0.3,0.2,0.9,0.2,1.3,0l4-2.3C477.8,210.9,477.8,210.5,477.5,210.3z"/>
								<path class="st10" d="M484.1,214.2l-4.3-2.5c-0.3-0.2-0.9-0.2-1.3,0l-4,2.3c-0.4,0.2-0.4,0.6-0.1,0.8l4.3,2.5
									c0.3,0.2,0.9,0.2,1.3,0l4-2.3C484.4,214.7,484.4,214.4,484.1,214.2z"/>
								<path class="st10" d="M490.7,218l-4.3-2.5c-0.3-0.2-0.9-0.2-1.3,0l-4,2.3c-0.4,0.2-0.4,0.6-0.1,0.8l4.3,2.5
									c0.3,0.2,0.9,0.2,1.3,0l4-2.3C491,218.5,491.1,218.2,490.7,218z"/>
								<path class="st10" d="M497.4,221.8l-4.3-2.5c-0.3-0.2-0.9-0.2-1.3,0l-4,2.3c-0.4,0.2-0.4,0.6-0.1,0.8l4.3,2.5
									c0.3,0.2,0.9,0.2,1.3,0l4-2.3C497.7,222.4,497.7,222,497.4,221.8z"/>
								<path class="st10" d="M504,225.7l-4.3-2.5c-0.3-0.2-0.9-0.2-1.3,0l-4,2.3c-0.4,0.2-0.4,0.6-0.1,0.8l4.3,2.5
									c0.3,0.2,0.9,0.2,1.3,0l4-2.3C504.3,226.2,504.3,225.9,504,225.7z"/>
								<path class="st10" d="M510.6,229.5l-4.3-2.5c-0.3-0.2-0.9-0.2-1.3,0l-4,2.3c-0.4,0.2-0.4,0.6-0.1,0.8l4.3,2.5
									c0.3,0.2,0.9,0.2,1.3,0l4-2.3C510.9,230,511,229.7,510.6,229.5z"/>
								<path class="st10" d="M522.4,236.3l-9.4-5.4c-0.3-0.2-0.9-0.2-1.3,0l-4,2.3c-0.4,0.2-0.4,0.6-0.1,0.8l9.4,5.4
									c0.3,0.2,0.9,0.2,1.3,0l4-2.3C522.7,236.8,522.7,236.5,522.4,236.3z"/>
								<path class="st10" d="M510.2,243.4l-7.9-4.6c-0.3-0.2-0.9-0.2-1.3,0l-4,2.3c-0.4,0.2-0.4,0.6-0.1,0.8l7.9,4.6
									c0.3,0.2,0.9,0.2,1.3,0l4-2.3C510.6,243.9,510.6,243.6,510.2,243.4z"/>
								<path class="st10" d="M456.6,205.4l-4.3-2.5c-0.3-0.2-0.9-0.2-1.3,0l-4,2.3c-0.4,0.2-0.4,0.6-0.1,0.8l4.3,2.5
									c0.3,0.2,0.9,0.2,1.3,0l4-2.3C457,205.9,457,205.6,456.6,205.4z"/>
								<path class="st10" d="M449.9,201.5l-4.3-2.5c-0.3-0.2-0.9-0.2-1.3,0l-4,2.3c-0.4,0.2-0.4,0.6-0.1,0.8l4.3,2.5
									c0.3,0.2,0.9,0.2,1.3,0l4-2.3C450.2,202,450.2,201.7,449.9,201.5z"/>
								<path class="st10" d="M443.1,197.5l-4.3-2.5c-0.3-0.2-0.9-0.2-1.3,0l-4,2.3c-0.4,0.2-0.4,0.6-0.1,0.8l4.3,2.5
									c0.3,0.2,0.9,0.2,1.3,0l4-2.3C443.4,198.1,443.4,197.7,443.1,197.5z"/>
								<path class="st10" d="M436.3,193.6l-4.3-2.5c-0.3-0.2-0.9-0.2-1.3,0l-4,2.3c-0.4,0.2-0.4,0.6-0.1,0.8l4.3,2.5
									c0.3,0.2,0.9,0.2,1.3,0l4-2.3C436.6,194.2,436.6,193.8,436.3,193.6z"/>
								<path class="st10" d="M463.3,209.2l-4.3-2.5c-0.3-0.2-0.9-0.2-1.3,0l-4,2.3c-0.4,0.2-0.4,0.6-0.1,0.8l4.3,2.5
									c0.3,0.2,0.9,0.2,1.3,0l4-2.3C463.6,209.8,463.6,209.4,463.3,209.2z"/>
								<path class="st10" d="M469.9,213l-4.3-2.5c-0.3-0.2-0.9-0.2-1.3,0l-4,2.3c-0.4,0.2-0.4,0.6-0.1,0.8l4.3,2.5
									c0.3,0.2,0.9,0.2,1.3,0l4-2.3C470.2,213.6,470.3,213.2,469.9,213z"/>
								<path class="st10" d="M476.5,216.9l-4.3-2.5c-0.3-0.2-0.9-0.2-1.3,0l-4,2.3c-0.4,0.2-0.4,0.6-0.1,0.8l4.3,2.5
									c0.3,0.2,0.9,0.2,1.3,0l4-2.3C476.9,217.4,476.9,217.1,476.5,216.9z"/>
								<path class="st10" d="M483.2,220.7l-4.3-2.5c-0.3-0.2-0.9-0.2-1.3,0l-4,2.3c-0.4,0.2-0.4,0.6-0.1,0.8l4.3,2.5
									c0.3,0.2,0.9,0.2,1.3,0l4-2.3C483.5,221.2,483.5,220.9,483.2,220.7z"/>
								<path class="st10" d="M489.8,224.5l-4.3-2.5c-0.3-0.2-0.9-0.2-1.3,0l-4,2.3c-0.4,0.2-0.4,0.6-0.1,0.8l4.3,2.5
									c0.3,0.2,0.9,0.2,1.3,0l4-2.3C490.1,225.1,490.1,224.7,489.8,224.5z"/>
								<path class="st10" d="M496.4,228.4l-4.3-2.5c-0.3-0.2-0.9-0.2-1.3,0l-4,2.3c-0.4,0.2-0.4,0.6-0.1,0.8l4.3,2.5
									c0.3,0.2,0.9,0.2,1.3,0l4-2.3C496.8,228.9,496.8,228.6,496.4,228.4z"/>
								<path class="st10" d="M503.1,232.2l-4.3-2.5c-0.3-0.2-0.9-0.2-1.3,0l-4,2.3c-0.4,0.2-0.4,0.6-0.1,0.8l4.3,2.5
									c0.3,0.2,0.9,0.2,1.3,0l4-2.3C503.4,232.7,503.4,232.4,503.1,232.2z"/>
								<path class="st10" d="M509.7,236l-4.3-2.5c-0.3-0.2-0.9-0.2-1.3,0l-4,2.3c-0.4,0.2-0.4,0.6-0.1,0.8l4.3,2.5
									c0.3,0.2,0.9,0.2,1.3,0l4-2.3C510,236.6,510,236.2,509.7,236z"/>
								<path class="st10" d="M516.3,239.8l-4.3-2.5c-0.3-0.2-0.9-0.2-1.3,0l-4,2.3c-0.4,0.2-0.4,0.6-0.1,0.8l4.3,2.5
									c0.3,0.2,0.9,0.2,1.3,0l4-2.3C516.6,240.4,516.7,240,516.3,239.8z"/>
								<path class="st10" d="M440.6,203.2l-4.3-2.5c-0.3-0.2-0.9-0.2-1.3,0l-4,2.3c-0.4,0.2-0.4,0.6-0.1,0.8l4.3,2.5
									c0.3,0.2,0.9,0.2,1.3,0l4-2.3C440.9,203.7,441,203.4,440.6,203.2z"/>
								<path class="st10" d="M434,199.4l-4.3-2.5c-0.3-0.2-0.9-0.2-1.3,0l-4,2.3c-0.4,0.2-0.4,0.6-0.1,0.8l4.3,2.5
									c0.3,0.2,0.9,0.2,1.3,0l4-2.3C434.3,199.9,434.4,199.6,434,199.4z"/>
								<path class="st10" d="M427.4,195.6l-4.3-2.5c-0.3-0.2-0.9-0.2-1.3,0l-4,2.3c-0.4,0.2-0.4,0.6-0.1,0.8l4.3,2.5
									c0.3,0.2,0.9,0.2,1.3,0l4-2.3C427.8,196.1,427.8,195.8,427.4,195.6z"/>
								<path class="st10" d="M420.8,191.8l-4.3-2.5c-0.3-0.2-0.9-0.2-1.3,0l-4,2.3c-0.4,0.2-0.4,0.6-0.1,0.8l4.3,2.5
									c0.3,0.2,0.9,0.2,1.3,0l4-2.3C421.2,192.3,421.2,192,420.8,191.8z"/>
								<path class="st10" d="M414.4,195.5l-4.3-2.5c-0.3-0.2-0.9-0.2-1.3,0l-1.3,0.8c-0.4,0.2-0.4,0.6-0.1,0.8l4.3,2.5
									c0.3,0.2,0.9,0.2,1.3,0l1.3-0.8C414.8,196,414.8,195.7,414.4,195.5z"/>
								<path class="st10" d="M423.1,200.5l-4.3-2.5c-0.3-0.2-0.9-0.2-1.3,0l-1.3,0.8c-0.4,0.2-0.4,0.6-0.1,0.8l4.3,2.5
									c0.3,0.2,0.9,0.2,1.3,0l1.3-0.8C423.4,201,423.4,200.7,423.1,200.5z"/>
								<path class="st10" d="M429.6,204.3l-4.3-2.5c-0.3-0.2-0.9-0.2-1.3,0l-1.3,0.8c-0.4,0.2-0.4,0.6-0.1,0.8l4.3,2.5
									c0.3,0.2,0.9,0.2,1.3,0l1.3-0.8C429.9,204.8,430,204.5,429.6,204.3z"/>
								<path class="st10" d="M436.2,208.1l-4.3-2.5c-0.3-0.2-0.9-0.2-1.3,0l-1.3,0.8c-0.4,0.2-0.4,0.6-0.1,0.8l4.3,2.5
									c0.3,0.2,0.9,0.2,1.3,0l1.3-0.8C436.5,208.6,436.5,208.3,436.2,208.1z"/>
								<path class="st10" d="M442.8,211.9l-4.3-2.5c-0.3-0.2-0.9-0.2-1.3,0l-1.3,0.8c-0.4,0.2-0.4,0.6-0.1,0.8l4.3,2.5
									c0.3,0.2,0.9,0.2,1.3,0l1.3-0.8C443.1,212.4,443.1,212.1,442.8,211.9z"/>
								<path class="st10" d="M479.4,233l-4.3-2.5c-0.3-0.2-0.9-0.2-1.3,0l-1.3,0.8c-0.4,0.2-0.4,0.6-0.1,0.8l4.3,2.5
									c0.3,0.2,0.9,0.2,1.3,0l1.3-0.8C479.8,233.6,479.8,233.2,479.4,233z"/>
								<path class="st10" d="M486,236.8l-4.3-2.5c-0.3-0.2-0.9-0.2-1.3,0l-1.3,0.8c-0.4,0.2-0.4,0.6-0.1,0.8l4.3,2.5
									c0.3,0.2,0.9,0.2,1.3,0l1.3-0.8C486.3,237.4,486.4,237,486,236.8z"/>
								<path class="st10" d="M492.6,240.6l-4.3-2.5c-0.3-0.2-0.9-0.2-1.3,0l-1.3,0.8c-0.4,0.2-0.4,0.6-0.1,0.8l4.3,2.5
									c0.3,0.2,0.9,0.2,1.3,0l1.3-0.8C492.9,241.2,492.9,240.8,492.6,240.6z"/>
								<path class="st10" d="M499.2,244.4l-4.3-2.5c-0.3-0.2-0.9-0.2-1.3,0l-1.3,0.8c-0.4,0.2-0.4,0.6-0.1,0.8l4.3,2.5
									c0.3,0.2,0.9,0.2,1.3,0l1.3-0.8C499.5,244.9,499.5,244.6,499.2,244.4z"/>
								<path class="st10" d="M447.3,207l-4.3-2.5c-0.3-0.2-0.9-0.2-1.3,0l-4,2.3c-0.4,0.2-0.4,0.6-0.1,0.8l4.3,2.5
									c0.3,0.2,0.9,0.2,1.3,0l4-2.3C447.6,207.6,447.6,207.2,447.3,207z"/>
								<path class="st10" d="M453.9,210.9l-4.3-2.5c-0.3-0.2-0.9-0.2-1.3,0l-4,2.3c-0.4,0.2-0.4,0.6-0.1,0.8l4.3,2.5
									c0.3,0.2,0.9,0.2,1.3,0l4-2.3C454.2,211.4,454.2,211.1,453.9,210.9z"/>
								<path class="st10" d="M460.5,214.7l-4.3-2.5c-0.3-0.2-0.9-0.2-1.3,0l-4,2.3c-0.4,0.2-0.4,0.6-0.1,0.8l4.3,2.5
									c0.3,0.2,0.9,0.2,1.3,0l4-2.3C460.8,215.2,460.9,214.9,460.5,214.7z"/>
								<path class="st10" d="M467.1,218.5l-4.3-2.5c-0.3-0.2-0.9-0.2-1.3,0l-4,2.3c-0.4,0.2-0.4,0.6-0.1,0.8l4.3,2.5
									c0.3,0.2,0.9,0.2,1.3,0l4-2.3C467.5,219,467.5,218.7,467.1,218.5z"/>
								<path class="st10" d="M473.8,222.3l-4.3-2.5c-0.3-0.2-0.9-0.2-1.3,0l-4,2.3c-0.4,0.2-0.4,0.6-0.1,0.8l4.3,2.5
									c0.3,0.2,0.9,0.2,1.3,0l4-2.3C474.1,222.9,474.1,222.5,473.8,222.3z"/>
								<path class="st10" d="M480.4,226.2l-4.3-2.5c-0.3-0.2-0.9-0.2-1.3,0l-4,2.3c-0.4,0.2-0.4,0.6-0.1,0.8l4.3,2.5
									c0.3,0.2,0.9,0.2,1.3,0l4-2.3C480.7,226.7,480.8,226.4,480.4,226.2z"/>
								<path class="st10" d="M487,230l-4.3-2.5c-0.3-0.2-0.9-0.2-1.3,0l-4,2.3c-0.4,0.2-0.4,0.6-0.1,0.8l4.3,2.5
									c0.3,0.2,0.9,0.2,1.3,0l4-2.3C487.4,230.5,487.4,230.2,487,230z"/>
								<path class="st10" d="M493.7,233.8l-4.3-2.5c-0.3-0.2-0.9-0.2-1.3,0l-4,2.3c-0.4,0.2-0.4,0.6-0.1,0.8l4.3,2.5
									c0.3,0.2,0.9,0.2,1.3,0l4-2.3C494,234.4,494,234,493.7,233.8z"/>
								<path class="st10" d="M500.3,237.7l-4.3-2.5c-0.3-0.2-0.9-0.2-1.3,0l-4,2.3c-0.4,0.2-0.4,0.6-0.1,0.8l4.3,2.5
									c0.3,0.2,0.9,0.2,1.3,0l4-2.3C500.6,238.2,500.6,237.8,500.3,237.7z"/>
								<path class="st10" d="M446.9,185.7l-12.6-7.3c-0.3-0.2-0.9-0.2-1.3,0l-4,2.3c-0.4,0.2-0.4,0.6-0.1,0.8l12.6,7.3
									c0.3,0.2,0.9,0.2,1.3,0l4-2.3C447.3,186.2,447.3,185.9,446.9,185.7z"/>
								<path class="st10" d="M528.4,232.7l-12.6-7.3c-0.3-0.2-0.9-0.2-1.3,0l-4,2.3c-0.4,0.2-0.4,0.6-0.1,0.8l12.6,7.3
									c0.3,0.2,0.9,0.2,1.3,0l4-2.3C528.7,233.2,528.7,232.9,528.4,232.7z"/>
								<path class="st10" d="M516.1,217.6l-4.3-2.5c-0.3-0.2-0.9-0.2-1.3,0l-4.8,2.8c-0.4,0.2-0.4,0.6-0.1,0.8l4.3,2.5
									c0.3,0.2,0.9,0.2,1.3,0l4.8-2.8C516.4,218.1,516.4,217.8,516.1,217.6z"/>
								<path class="st10" d="M468,189.8l-6.9-4c-0.3-0.2-0.9-0.2-1.3,0l-4.8,2.8c-0.4,0.2-0.4,0.6-0.1,0.8l6.9,4
									c0.3,0.2,0.9,0.2,1.3,0l4.8-2.8C468.3,190.3,468.3,190,468,189.8z"/>
								<path class="st10" d="M509.7,213.9l-6.9-4c-0.3-0.2-0.9-0.2-1.3,0l-4.8,2.8c-0.4,0.2-0.4,0.6-0.1,0.8l6.9,4
									c0.3,0.2,0.9,0.2,1.3,0l4.8-2.8C510,214.4,510.1,214.1,509.7,213.9z"/>
								<path class="st10" d="M477.5,195.3l-6.9-4c-0.3-0.2-0.9-0.2-1.3,0l-4.8,2.8c-0.4,0.2-0.4,0.6-0.1,0.8l6.9,4
									c0.3,0.2,0.9,0.2,1.3,0l4.8-2.8C477.8,195.8,477.9,195.5,477.5,195.3z"/>
								<path class="st10" d="M464.6,195l29.9,17.2c0.4,0.2,1,0.2,1.3,0l4.9-2.8c0.3-0.2,0.3-0.5,0-0.8l-29.9-17.2L464.6,195z"/>
								<path class="st10" d="M528.3,228.2l4.8,2.8c0.3,0.2,0.8,0.1,1.1,0l2-1.1c0.3-0.2,0.3-0.5,0-0.6l-4.8-2.8
									c-0.3-0.2-0.8-0.1-1.1,0l-2,1.1C528.1,227.8,528,228,528.3,228.2z"/>
								<path class="st10" d="M521.6,224.3l4.8,2.8c0.3,0.2,0.8,0.1,1.1,0l2-1.1c0.3-0.2,0.3-0.5,0-0.6l-4.8-2.8
									c-0.3-0.2-0.8-0.1-1.1,0l-2,1.1C521.4,223.9,521.3,224.2,521.6,224.3z"/>
								<path class="st10" d="M515,220.5l4.8,2.8c0.3,0.2,0.8,0.1,1.1,0l2-1.1c0.3-0.2,0.3-0.5,0-0.6l-4.8-2.8
									c-0.3-0.2-0.8-0.1-1.1,0l-2,1.1C514.7,220.1,514.7,220.3,515,220.5z"/>
								<path class="st10" d="M518.2,226.4l4.8,2.8c0.3,0.2,0.8,0.1,1.1,0l2-1.1c0.3-0.2,0.3-0.5,0-0.6l-4.8-2.8
									c-0.3-0.2-0.8-0.1-1.1,0l-2,1.1C517.9,225.9,517.9,226.2,518.2,226.4z"/>
							</g>
						</g>
					</g>
				</g>
				<g class="st21">
					<path class="st10" d="M352,230.2l-4.3-2.5c-0.3-0.2-0.3-0.5,0.1-0.8l5-2.9c0.4-0.2,1-0.3,1.3-0.1l4.3,2.5
						c0.3,0.2,0.3,0.5-0.1,0.8l-5,2.9C353,230.3,352.4,230.4,352,230.2z"/>
					<path class="st10" d="M358.6,233.9l-4.3-2.5c-0.3-0.2-0.3-0.5,0.1-0.8l5-2.9c0.4-0.2,1-0.3,1.3-0.1l4.3,2.5
						c0.3,0.2,0.3,0.5-0.1,0.8l-5,2.9C359.5,234.1,359,234.1,358.6,233.9z"/>
					<path class="st10" d="M365.2,237.7l-4.3-2.5c-0.3-0.2-0.3-0.5,0.1-0.8l5-2.9c0.4-0.2,1-0.3,1.3-0.1l4.3,2.5
						c0.3,0.2,0.3,0.5-0.1,0.8l-5,2.9C366.1,237.9,365.5,237.9,365.2,237.7z"/>
					<path class="st10" d="M374.3,234.6l-4.3-2.5c-0.3-0.2-0.3-0.5,0.1-0.8l4.2-2.4c0.4-0.2,1-0.3,1.3-0.1l4.3,2.5
						c0.3,0.2,0.3,0.5-0.1,0.8l-4.2,2.4C375.2,234.8,374.6,234.8,374.3,234.6z"/>
					<path class="st10" d="M380.8,238.4l-4.3-2.5c-0.3-0.2-0.3-0.5,0.1-0.8l4.2-2.4c0.4-0.2,1-0.3,1.3-0.1l4.3,2.5
						c0.3,0.2,0.3,0.5-0.1,0.8l-4.2,2.4C381.8,238.6,381.2,238.6,380.8,238.4z"/>
					<path class="st10" d="M387.4,242.2l-4.3-2.5c-0.3-0.2-0.3-0.5,0.1-0.8l4.2-2.4c0.4-0.2,1-0.3,1.3-0.1l4.3,2.5
						c0.3,0.2,0.3,0.5-0.1,0.8l-4.2,2.4C388.3,242.4,387.7,242.4,387.4,242.2z"/>
					<path class="st10" d="M394,246l-4.3-2.5c-0.3-0.2-0.3-0.5,0.1-0.8l4.2-2.4c0.4-0.2,1-0.3,1.3-0.1l4.3,2.5
						c0.3,0.2,0.3,0.5-0.1,0.8l-4.2,2.4C394.9,246.2,394.3,246.2,394,246z"/>
					<path class="st10" d="M400.5,249.8l-4.3-2.5c-0.3-0.2-0.3-0.5,0.1-0.8l4.2-2.4c0.4-0.2,1-0.3,1.3-0.1l4.3,2.5
						c0.3,0.2,0.3,0.5-0.1,0.8l-4.2,2.4C401.5,249.9,400.9,250,400.5,249.8z"/>
					<path class="st10" d="M407.1,253.6l-4.3-2.5c-0.3-0.2-0.3-0.5,0.1-0.8l4.2-2.4c0.4-0.2,1-0.3,1.3-0.1l4.3,2.5
						c0.3,0.2,0.3,0.5-0.1,0.8l-4.2,2.4C408,253.7,407.4,253.8,407.1,253.6z"/>
					<path class="st10" d="M413.7,257.4l-4.3-2.5c-0.3-0.2-0.3-0.5,0.1-0.8l4.2-2.4c0.4-0.2,1-0.3,1.3-0.1l4.3,2.5
						c0.3,0.2,0.3,0.5-0.1,0.8l-4.2,2.4C414.6,257.5,414,257.6,413.7,257.4z"/>
					<path class="st10" d="M420.2,261.1l-4.3-2.5c-0.3-0.2-0.3-0.5,0.1-0.8l4.2-2.4c0.4-0.2,1-0.3,1.3-0.1l4.3,2.5
						c0.3,0.2,0.3,0.5-0.1,0.8l-4.2,2.4C421.2,261.3,420.6,261.3,420.2,261.1z"/>
					<path class="st10" d="M426.8,264.9l-4.3-2.5c-0.3-0.2-0.3-0.5,0.1-0.8l4.2-2.4c0.4-0.2,1-0.3,1.3-0.1l4.3,2.5
						c0.3,0.2,0.3,0.5-0.1,0.8l-4.2,2.4C427.7,265.1,427.1,265.1,426.8,264.9z"/>
					<path class="st10" d="M433.4,268.7l-4.3-2.5c-0.3-0.2-0.3-0.5,0.1-0.8l4.2-2.4c0.4-0.2,1-0.3,1.3-0.1l4.3,2.5
						c0.3,0.2,0.3,0.5-0.1,0.8l-4.2,2.4C434.3,268.9,433.7,268.9,433.4,268.7z"/>
					<path class="st10" d="M383.9,232.8l-4.3-2.5c-0.3-0.2-0.3-0.5,0.1-0.8l4.2-2.4c0.4-0.2,1-0.3,1.3-0.1l4.3,2.5
						c0.3,0.2,0.3,0.5-0.1,0.8l-4.2,2.4C384.9,233,384.3,233,383.9,232.8z"/>
					<path class="st10" d="M377.3,229l-4.3-2.5c-0.3-0.2-0.3-0.5,0.1-0.8l4.2-2.4c0.4-0.2,1-0.3,1.3-0.1l4.3,2.5
						c0.3,0.2,0.3,0.5-0.1,0.8l-4.2,2.4C378.2,229.1,377.6,229.2,377.3,229z"/>
					<path class="st10" d="M370.6,225.1l-9.2-5.3c-0.3-0.2-0.3-0.5,0.1-0.8l4.2-2.4c0.4-0.2,1-0.3,1.3-0.1l9.2,5.3
						c0.3,0.2,0.3,0.5-0.1,0.8l-4.2,2.4C371.5,225.3,370.9,225.3,370.6,225.1z"/>
					<path class="st10" d="M375.3,220.4l-7.4-4.3c-0.3-0.2-0.3-0.5,0.1-0.8l4.2-2.4c0.4-0.2,1-0.3,1.3-0.1l7.4,4.3
						c0.3,0.2,0.3,0.5-0.1,0.8l-4.2,2.4C376.2,220.6,375.6,220.6,375.3,220.4z"/>
					<path class="st10" d="M390.5,236.6l-4.3-2.5c-0.3-0.2-0.3-0.5,0.1-0.8l4.2-2.4c0.4-0.2,1-0.3,1.3-0.1l4.3,2.5
						c0.3,0.2,0.3,0.5-0.1,0.8l-4.2,2.4C391.4,236.8,390.8,236.8,390.5,236.6z"/>
					<path class="st10" d="M397.1,240.4l-4.3-2.5c-0.3-0.2-0.3-0.5,0.1-0.8l4.2-2.4c0.4-0.2,1-0.3,1.3-0.1l4.3,2.5
						c0.3,0.2,0.3,0.5-0.1,0.8l-4.2,2.4C398,240.6,397.4,240.6,397.1,240.4z"/>
					<path class="st10" d="M403.6,244.2l-4.3-2.5c-0.3-0.2-0.3-0.5,0.1-0.8l4.2-2.4c0.4-0.2,1-0.3,1.3-0.1l4.3,2.5
						c0.3,0.2,0.3,0.5-0.1,0.8l-4.2,2.4C404.6,244.4,404,244.4,403.6,244.2z"/>
					<path class="st10" d="M410.2,248l-4.3-2.5c-0.3-0.2-0.3-0.5,0.1-0.8l4.2-2.4c0.4-0.2,1-0.3,1.3-0.1l4.3,2.5
						c0.3,0.2,0.3,0.5-0.1,0.8l-4.2,2.4C411.1,248.1,410.5,248.2,410.2,248z"/>
					<path class="st10" d="M416.8,251.8l-4.3-2.5c-0.3-0.2-0.3-0.5,0.1-0.8l4.2-2.4c0.4-0.2,1-0.3,1.3-0.1l4.3,2.5
						c0.3,0.2,0.3,0.5-0.1,0.8l-4.2,2.4C417.7,251.9,417.1,252,416.8,251.8z"/>
					<path class="st10" d="M423.3,255.6l-4.3-2.5c-0.3-0.2-0.3-0.5,0.1-0.8l4.2-2.4c0.4-0.2,1-0.3,1.3-0.1l4.3,2.5
						c0.3,0.2,0.3,0.5-0.1,0.8l-4.2,2.4C424.3,255.7,423.7,255.8,423.3,255.6z"/>
					<path class="st10" d="M429.9,259.4l-4.3-2.5c-0.3-0.2-0.3-0.5,0.1-0.8l4.2-2.4c0.4-0.2,1-0.3,1.3-0.1l4.3,2.5
						c0.3,0.2,0.3,0.5-0.1,0.8l-4.2,2.4C430.8,259.5,430.2,259.5,429.9,259.4z"/>
					<path class="st10" d="M436.5,263.1l-4.3-2.5c-0.3-0.2-0.3-0.5,0.1-0.8l4.2-2.4c0.4-0.2,1-0.3,1.3-0.1l4.3,2.5
						c0.3,0.2,0.3,0.5-0.1,0.8l-4.2,2.4C437.4,263.3,436.8,263.3,436.5,263.1z"/>
					<path class="st10" d="M443,266.9l-4.3-2.5c-0.3-0.2-0.3-0.5,0.1-0.8l4.2-2.4c0.4-0.2,1-0.3,1.3-0.1l4.3,2.5
						c0.3,0.2,0.3,0.5-0.1,0.8l-4.2,2.4C444,267.1,443.4,267.1,443,266.9z"/>
					<path class="st10" d="M454.7,273.7l-9.3-5.4c-0.3-0.2-0.3-0.5,0.1-0.8l4.2-2.4c0.4-0.2,1-0.3,1.3-0.1l9.3,5.4
						c0.3,0.2,0.3,0.5-0.1,0.8l-4.2,2.4C455.6,273.8,455,273.9,454.7,273.7z"/>
					<path class="st10" d="M467.5,266.3l-7.8-4.5c-0.3-0.2-0.3-0.5,0.1-0.8l4.2-2.4c0.4-0.2,1-0.3,1.3-0.1l7.8,4.5
						c0.3,0.2,0.3,0.5-0.1,0.8l-4.2,2.4C468.4,266.5,467.8,266.5,467.5,266.3z"/>
					<path class="st10" d="M402,235.9l-4.3-2.5c-0.3-0.2-0.3-0.5,0.1-0.8l4.2-2.4c0.4-0.2,1-0.3,1.3-0.1l4.3,2.5
						c0.3,0.2,0.3,0.5-0.1,0.8l-4.2,2.4C402.9,236,402.3,236.1,402,235.9z"/>
					<path class="st10" d="M395.3,232l-4.3-2.5c-0.3-0.2-0.3-0.5,0.1-0.8l4.2-2.4c0.4-0.2,1-0.3,1.3-0.1l4.3,2.5
						c0.3,0.2,0.3,0.5-0.1,0.8l-4.2,2.4C396.2,232.1,395.6,232.2,395.3,232z"/>
					<path class="st10" d="M388.5,228.1l-4.3-2.5c-0.3-0.2-0.3-0.5,0.1-0.8l4.2-2.4c0.4-0.2,1-0.3,1.3-0.1l4.3,2.5
						c0.3,0.2,0.3,0.5-0.1,0.8l-4.2,2.4C389.5,228.3,388.9,228.3,388.5,228.1z"/>
					<path class="st10" d="M381.8,224.2l-4.3-2.5c-0.3-0.2-0.3-0.5,0.1-0.8l4.2-2.4c0.4-0.2,1-0.3,1.3-0.1l4.3,2.5
						c0.3,0.2,0.3,0.5-0.1,0.8l-4.2,2.4C382.7,224.4,382.2,224.4,381.8,224.2z"/>
					<path class="st10" d="M408.6,239.7l-4.3-2.5c-0.3-0.2-0.3-0.5,0.1-0.8l4.2-2.4c0.4-0.2,1-0.3,1.3-0.1l4.3,2.5
						c0.3,0.2,0.3,0.5-0.1,0.8l-4.2,2.4C409.5,239.8,408.9,239.8,408.6,239.7z"/>
					<path class="st10" d="M415.1,243.4l-4.3-2.5c-0.3-0.2-0.3-0.5,0.1-0.8l4.2-2.4c0.4-0.2,1-0.3,1.3-0.1l4.3,2.5
						c0.3,0.2,0.3,0.5-0.1,0.8l-4.2,2.4C416.1,243.6,415.5,243.6,415.1,243.4z"/>
					<path class="st10" d="M421.7,247.2l-4.3-2.5c-0.3-0.2-0.3-0.5,0.1-0.8l4.2-2.4c0.4-0.2,1-0.3,1.3-0.1l4.3,2.5
						c0.3,0.2,0.3,0.5-0.1,0.8l-4.2,2.4C422.6,247.4,422,247.4,421.7,247.2z"/>
					<path class="st10" d="M428.3,251l-4.3-2.5c-0.3-0.2-0.3-0.5,0.1-0.8l4.2-2.4c0.4-0.2,1-0.3,1.3-0.1l4.3,2.5
						c0.3,0.2,0.3,0.5-0.1,0.8l-4.2,2.4C429.2,251.2,428.6,251.2,428.3,251z"/>
					<path class="st10" d="M434.8,254.8l-4.3-2.5c-0.3-0.2-0.3-0.5,0.1-0.8l4.2-2.4c0.4-0.2,1-0.3,1.3-0.1l4.3,2.5
						c0.3,0.2,0.3,0.5-0.1,0.8l-4.2,2.4C435.8,255,435.2,255,434.8,254.8z"/>
					<path class="st10" d="M441.4,258.6l-4.3-2.5c-0.3-0.2-0.3-0.5,0.1-0.8l4.2-2.4c0.4-0.2,1-0.3,1.3-0.1l4.3,2.5
						c0.3,0.2,0.3,0.5-0.1,0.8l-4.2,2.4C442.3,258.8,441.7,258.8,441.4,258.6z"/>
					<path class="st10" d="M448,262.4l-4.3-2.5c-0.3-0.2-0.3-0.5,0.1-0.8l4.2-2.4c0.4-0.2,1-0.3,1.3-0.1l4.3,2.5
						c0.3,0.2,0.3,0.5-0.1,0.8l-4.2,2.4C448.9,262.6,448.3,262.6,448,262.4z"/>
					<path class="st10" d="M454.5,266.2l-4.3-2.5c-0.3-0.2-0.3-0.5,0.1-0.8l4.2-2.4c0.4-0.2,1-0.3,1.3-0.1l4.3,2.5
						c0.3,0.2,0.3,0.5-0.1,0.8l-4.2,2.4C455.5,266.4,454.9,266.4,454.5,266.2z"/>
					<path class="st10" d="M461.1,270l-4.3-2.5c-0.3-0.2-0.3-0.5,0.1-0.8l4.2-2.4c0.4-0.2,1-0.3,1.3-0.1l4.3,2.5
						c0.3,0.2,0.3,0.5-0.1,0.8l-4.2,2.4C462,270.2,461.4,270.2,461.1,270z"/>
					<path class="st10" d="M398.5,226.5l-4.3-2.5c-0.3-0.2-0.3-0.5,0.1-0.8l4.2-2.4c0.4-0.2,1-0.3,1.3-0.1l4.3,2.5
						c0.3,0.2,0.3,0.5-0.1,0.8l-4.2,2.4C399.5,226.7,398.9,226.7,398.5,226.5z"/>
					<path class="st10" d="M392,222.7l-4.3-2.5c-0.3-0.2-0.3-0.5,0.1-0.8l4.2-2.4c0.4-0.2,1-0.3,1.3-0.1l4.3,2.5
						c0.3,0.2,0.3,0.5-0.1,0.8l-4.2,2.4C392.9,222.9,392.3,222.9,392,222.7z"/>
					<path class="st10" d="M385.5,218.9l-4.3-2.5c-0.3-0.2-0.3-0.5,0.1-0.8l4.2-2.4c0.4-0.2,1-0.3,1.3-0.1l4.3,2.5
						c0.3,0.2,0.3,0.5-0.1,0.8l-4.2,2.4C386.4,219.1,385.8,219.1,385.5,218.9z"/>
					<path class="st10" d="M378.9,215.2l-4.3-2.5c-0.3-0.2-0.3-0.5,0.1-0.8l4.2-2.4c0.4-0.2,1-0.3,1.3-0.1l4.3,2.5
						c0.3,0.2,0.3,0.5-0.1,0.8l-4.2,2.4C379.9,215.3,379.3,215.4,378.9,215.2z"/>
					<path class="st10" d="M385.7,211.3l-4.3-2.5c-0.3-0.2-0.3-0.5,0.1-0.8l1.4-0.8c0.4-0.2,1-0.3,1.3-0.1l4.3,2.5
						c0.3,0.2,0.3,0.5-0.1,0.8l-1.4,0.8C386.6,211.5,386,211.5,385.7,211.3z"/>
					<path class="st10" d="M394.2,216.2l-4.3-2.5c-0.3-0.2-0.3-0.5,0.1-0.8l1.4-0.8c0.4-0.2,1-0.3,1.3-0.1l4.3,2.5
						c0.3,0.2,0.3,0.5-0.1,0.8l-1.4,0.8C395.1,216.4,394.5,216.4,394.2,216.2z"/>
					<path class="st10" d="M400.7,220l-4.3-2.5c-0.3-0.2-0.3-0.5,0.1-0.8l1.4-0.8c0.4-0.2,1-0.3,1.3-0.1l4.3,2.5
						c0.3,0.2,0.3,0.5-0.1,0.8l-1.4,0.8C401.6,220.1,401,220.2,400.7,220z"/>
					<path class="st10" d="M407.2,223.7l-4.3-2.5c-0.3-0.2-0.3-0.5,0.1-0.8l1.4-0.8c0.4-0.2,1-0.3,1.3-0.1l4.3,2.5
						c0.3,0.2,0.3,0.5-0.1,0.8l-1.4,0.8C408.1,223.9,407.5,223.9,407.2,223.7z"/>
					<path class="st10" d="M413.7,227.5l-4.3-2.5c-0.3-0.2-0.3-0.5,0.1-0.8l1.4-0.8c0.4-0.2,1-0.3,1.3-0.1l4.3,2.5
						c0.3,0.2,0.3,0.5-0.1,0.8l-1.4,0.8C414.6,227.7,414,227.7,413.7,227.5z"/>
					<path class="st10" d="M450,248.5l-4.3-2.5c-0.3-0.2-0.3-0.5,0.1-0.8l1.4-0.8c0.4-0.2,1-0.3,1.3-0.1l4.3,2.5
						c0.3,0.2,0.3,0.5-0.1,0.8l-1.4,0.8C451,248.6,450.4,248.7,450,248.5z"/>
					<path class="st10" d="M456.5,252.2l-4.3-2.5c-0.3-0.2-0.3-0.5,0.1-0.8l1.4-0.8c0.4-0.2,1-0.3,1.3-0.1l4.3,2.5
						c0.3,0.2,0.3,0.5-0.1,0.8l-1.4,0.8C457.5,252.4,456.9,252.4,456.5,252.2z"/>
					<path class="st10" d="M463,256l-4.3-2.5c-0.3-0.2-0.3-0.5,0.1-0.8l1.4-0.8c0.4-0.2,1-0.3,1.3-0.1l4.3,2.5
						c0.3,0.2,0.3,0.5-0.1,0.8l-1.4,0.8C464,256.1,463.4,256.2,463,256z"/>
					<path class="st10" d="M469.6,259.7l-4.3-2.5c-0.3-0.2-0.3-0.5,0.1-0.8l1.4-0.8c0.4-0.2,1-0.3,1.3-0.1l4.3,2.5
						c0.3,0.2,0.3,0.5-0.1,0.8l-1.4,0.8C470.5,259.9,469.9,259.9,469.6,259.7z"/>
					<path class="st10" d="M405.1,230.3l-4.3-2.5c-0.3-0.2-0.3-0.5,0.1-0.8l4.2-2.4c0.4-0.2,1-0.3,1.3-0.1l4.3,2.5
						c0.3,0.2,0.3,0.5-0.1,0.8l-4.2,2.4C406,230.4,405.5,230.5,405.1,230.3z"/>
					<path class="st10" d="M411.7,234.1l-4.3-2.5c-0.3-0.2-0.3-0.5,0.1-0.8l4.2-2.4c0.4-0.2,1-0.3,1.3-0.1l4.3,2.5
						c0.3,0.2,0.3,0.5-0.1,0.8L413,234C412.6,234.2,412,234.3,411.7,234.1z"/>
					<path class="st10" d="M418.2,237.9l-4.3-2.5c-0.3-0.2-0.3-0.5,0.1-0.8l4.2-2.4c0.4-0.2,1-0.3,1.3-0.1l4.3,2.5
						c0.3,0.2,0.3,0.5-0.1,0.8l-4.2,2.4C419.2,238,418.6,238.1,418.2,237.9z"/>
					<path class="st10" d="M424.8,241.6l-4.3-2.5c-0.3-0.2-0.3-0.5,0.1-0.8l4.2-2.4c0.4-0.2,1-0.3,1.3-0.1l4.3,2.5
						c0.3,0.2,0.3,0.5-0.1,0.8l-4.2,2.4C425.7,241.8,425.1,241.8,424.8,241.6z"/>
					<path class="st10" d="M431.4,245.4l-4.3-2.5c-0.3-0.2-0.3-0.5,0.1-0.8l4.2-2.4c0.4-0.2,1-0.3,1.3-0.1l4.3,2.5
						c0.3,0.2,0.3,0.5-0.1,0.8l-4.2,2.4C432.3,245.6,431.7,245.6,431.4,245.4z"/>
					<path class="st10" d="M437.9,249.2l-4.3-2.5c-0.3-0.2-0.3-0.5,0.1-0.8l4.2-2.4c0.4-0.2,1-0.3,1.3-0.1l4.3,2.5
						c0.3,0.2,0.3,0.5-0.1,0.8l-4.2,2.4C438.9,249.4,438.3,249.4,437.9,249.2z"/>
					<path class="st10" d="M444.5,253l-4.3-2.5c-0.3-0.2-0.3-0.5,0.1-0.8l4.2-2.4c0.4-0.2,1-0.3,1.3-0.1l4.3,2.5
						c0.3,0.2,0.3,0.5-0.1,0.8l-4.2,2.4C445.4,253.2,444.8,253.2,444.5,253z"/>
					<path class="st10" d="M451.1,256.8l-4.3-2.5c-0.3-0.2-0.3-0.5,0.1-0.8l4.2-2.4c0.4-0.2,1-0.3,1.3-0.1l4.3,2.5
						c0.3,0.2,0.3,0.5-0.1,0.8l-4.2,2.4C452,257,451.4,257,451.1,256.8z"/>
					<path class="st10" d="M457.6,260.6l-4.3-2.5c-0.3-0.2-0.3-0.5,0.1-0.8l4.2-2.4c0.4-0.2,1-0.3,1.3-0.1l4.3,2.5
						c0.3,0.2,0.3,0.5-0.1,0.8l-4.2,2.4C458.6,260.8,458,260.8,457.6,260.6z"/>
					<path class="st10" d="M367.6,230.7l-12.5-7.2c-0.3-0.2-0.3-0.5,0.1-0.8l4.2-2.4c0.4-0.2,1-0.3,1.3-0.1l12.5,7.2
						c0.3,0.2,0.3,0.5-0.1,0.8l-4.2,2.4C368.5,230.9,367.9,230.9,367.6,230.7z"/>
					<path class="st10" d="M448.2,277.3l-12.5-7.2c-0.3-0.2-0.3-0.5,0.1-0.8l4.2-2.4c0.4-0.2,1-0.3,1.3-0.1l12.5,7.2
						c0.3,0.2,0.3,0.5-0.1,0.8l-4.2,2.4C449.2,277.5,448.6,277.5,448.2,277.3z"/>
					<path class="st10" d="M422,270.5l-4.3-2.5c-0.3-0.2-0.3-0.5,0.1-0.8l5-2.9c0.4-0.2,1-0.3,1.3-0.1l4.3,2.5
						c0.3,0.2,0.3,0.5-0.1,0.8l-5,2.9C422.9,270.7,422.3,270.7,422,270.5z"/>
					<path class="st10" d="M374.3,243l-6.8-3.9c-0.3-0.2-0.3-0.5,0.1-0.8l5-2.9c0.4-0.2,1-0.3,1.3-0.1l6.8,3.9
						c0.3,0.2,0.3,0.5-0.1,0.8l-5,2.9C375.2,243.2,374.6,243.2,374.3,243z"/>
					<path class="st10" d="M415.7,266.9l-6.8-3.9c-0.3-0.2-0.3-0.5,0.1-0.8l5-2.9c0.4-0.2,1-0.3,1.3-0.1l6.8,3.9
						c0.3,0.2,0.3,0.5-0.1,0.8l-5,2.9C416.6,267.1,416,267.1,415.7,266.9z"/>
					<path class="st10" d="M383.8,248.5l-6.8-3.9c-0.3-0.2-0.3-0.5,0.1-0.8l5-2.9c0.4-0.2,1-0.3,1.3-0.1l6.8,3.9
						c0.3,0.2,0.3,0.5-0.1,0.8l-5,2.9C384.7,248.6,384.1,248.7,383.8,248.5z"/>
					<path class="st10" d="M383.5,240.8l29.6,17.1c0.4,0.2,0.4,0.6,0,0.8l-5.1,3c-0.4,0.2-1,0.2-1.3,0L377,244.6L383.5,240.8z"/>
					<path class="st10" d="M440.3,277.4l4.7,2.7c0.3,0.2,0.2,0.4-0.1,0.6l-2.1,1.2c-0.3,0.2-0.8,0.2-1.1,0l-4.7-2.7
						c-0.3-0.2-0.2-0.4,0.1-0.6l2.1-1.2C439.6,277.3,440.1,277.2,440.3,277.4z"/>
					<path class="st10" d="M433.7,273.6l4.7,2.7c0.3,0.2,0.2,0.4-0.1,0.6l-2.1,1.2c-0.3,0.2-0.8,0.2-1.1,0l-4.7-2.7
						c-0.3-0.2-0.2-0.4,0.1-0.6l2.1-1.2C432.9,273.4,433.4,273.4,433.7,273.6z"/>
					<path class="st10" d="M427.1,269.8l4.7,2.7c0.3,0.2,0.2,0.4-0.1,0.6l-2.1,1.2c-0.3,0.2-0.8,0.2-1.1,0l-4.7-2.7
						c-0.3-0.2-0.2-0.4,0.1-0.6l2.1-1.2C426.4,269.7,426.9,269.6,427.1,269.8z"/>
					<path class="st10" d="M437.3,271.5l4.7,2.7c0.3,0.2,0.2,0.4-0.1,0.6l-2.1,1.2c-0.3,0.2-0.8,0.2-1.1,0l-4.7-2.7
						c-0.3-0.2-0.2-0.4,0.1-0.6l2.1-1.2C436.6,271.3,437.1,271.3,437.3,271.5z"/>
				</g>
			</g>
			<g>
				<path class="st7" d="M504.3,169.3c-0.3,0-0.7-0.1-1-0.3c-1-0.6-1.6-1.9-1.4-2.9c0.1-0.5,0.4-0.9,0.8-1.1c0.5-0.2,1-0.1,1.6,0.2
					c1,0.6,1.6,1.9,1.4,2.9c-0.1,0.5-0.4,0.9-0.8,1.1C504.7,169.3,504.5,169.3,504.3,169.3z M503.4,165.4c-0.1,0-0.3,0-0.4,0.1
					c-0.3,0.1-0.5,0.4-0.6,0.7c-0.2,0.9,0.3,1.9,1.2,2.4c0.4,0.2,0.8,0.3,1.2,0.1c0.3-0.1,0.5-0.4,0.6-0.7c0.2-0.9-0.3-1.9-1.2-2.4
					C503.9,165.5,503.6,165.4,503.4,165.4z"/>
				<path class="st7" d="M509.7,172.4c-0.3,0-0.7-0.1-1-0.3c-1-0.6-1.6-1.9-1.4-2.9c0.1-0.5,0.4-0.9,0.8-1.1c0.5-0.2,1-0.1,1.6,0.2
					c1,0.6,1.6,1.9,1.4,2.9c-0.1,0.5-0.4,0.9-0.8,1.1C510.1,172.4,509.9,172.4,509.7,172.4z M508.8,168.5c-0.1,0-0.3,0-0.4,0.1
					c-0.3,0.1-0.5,0.4-0.6,0.7c-0.2,0.9,0.3,1.9,1.2,2.4c0.4,0.2,0.8,0.3,1.2,0.1c0.3-0.1,0.5-0.4,0.6-0.7c0.2-0.9-0.3-1.9-1.2-2.4
					C509.3,168.6,509,168.5,508.8,168.5z"/>
				<path class="st7" d="M516.4,174.3c-0.2,0.9-1.1,1.3-2.1,0.7s-1.5-1.7-1.3-2.7c0.2-0.9,1.1-1.3,2.1-0.7
					C516,172.2,516.6,173.4,516.4,174.3z"/>
			</g>
			<polygon class="st7" points="412.5,114.6 409.6,112.9 409.9,111.6 412.8,113.3 			"/>
			<polygon class="st7" points="416.7,117 413.9,115.4 414.1,114 417,115.7 			"/>
			<polygon class="st7" points="408.4,112.2 402,108.5 402.2,107.2 408.6,110.9 			"/>
		</g>
		<g>
			<g>
				<polygon class="st7" points="409.2,137.5 404.3,134.7 404.5,133.5 409.4,136.3 				"/>
				<polygon class="st7" points="413.3,139.8 410.9,138.5 411.1,137.3 413.5,138.7 				"/>
				<polygon class="st7" points="410.2,140.9 408.1,139.7 408.3,138.6 410.3,139.8 				"/>
				<polygon class="st7" points="413.6,142.9 411.2,141.5 411.4,140.4 413.8,141.8 				"/>
				<polygon class="st7" points="417.2,147.8 407.7,142.3 407.8,141.2 417.4,146.7 				"/>
				<polygon class="st7" points="408.9,169.8 399.4,164.3 399.6,163.2 409.1,168.7 				"/>
				<polygon class="st7" points="412.6,172 410.2,170.6 410.3,169.4 412.8,170.8 				"/>
				<polygon class="st7" points="409.3,146.2 407.2,145 407.4,143.9 409.5,145 				"/>
				<polygon class="st7" points="412.7,148.2 410.3,146.8 410.5,145.6 412.9,147 				"/>
				<polygon class="st7" points="412,150.6 406.8,147.6 407,146.5 412.2,149.5 				"/>
				<polygon class="st7" points="415.5,152.6 413.1,151.2 413.3,150.1 415.7,151.5 				"/>
				<polygon class="st7" points="419,154.7 416.6,153.3 416.8,152.2 419.2,153.6 				"/>
				<polygon class="st7" points="424.7,158 420.1,155.3 420.3,154.2 424.9,156.8 				"/>
				<polygon class="st7" points="421.1,161.6 418.7,160.2 418.9,159.1 421.3,160.5 				"/>
				<polygon class="st7" points="426.8,164.9 422.2,162.3 422.4,161.1 427,163.8 				"/>
				<polygon class="st7" points="408.3,154.3 405.9,152.9 406.1,151.7 408.5,153.1 				"/>
				<polygon class="st7" points="411.8,156.3 409.4,154.9 409.6,153.8 412,155.2 				"/>
				<polygon class="st7" points="417.5,159.6 412.9,156.9 413.1,155.8 417.7,158.5 				"/>
				<polygon class="st7" points="425,161 422.5,159.6 422.7,158.5 425.2,159.9 				"/>
				<polygon class="st7" points="428.5,163 426.1,161.6 426.3,160.5 428.7,161.9 				"/>
				<polygon class="st7" points="434.2,166.3 429.6,163.7 429.8,162.5 434.4,165.2 				"/>
				<polygon class="st7" points="416.4,174.1 414,172.7 414.1,171.6 416.6,173 				"/>
				<polygon class="st7" points="422.1,177.4 417.5,174.8 417.7,173.7 422.2,176.3 				"/>
				<polygon class="st7" points="407.4,159.5 405,158.1 405.2,157 407.6,158.4 				"/>
				<polygon class="st7" points="413.1,162.8 408.5,160.1 408.7,159 413.3,161.7 				"/>
				<polygon class="st7" points="419,178.5 416.6,177.1 416.8,176 419.2,177.4 				"/>
				<polygon class="st7" points="424.7,181.8 420.1,179.2 420.3,178.1 424.9,180.7 				"/>
				<polygon class="st7" points="424.4,152 422,150.6 422.2,149.5 424.6,150.9 				"/>
				<polygon class="st7" points="420.8,149.9 418.3,148.5 418.5,147.4 420.9,148.8 				"/>
				<polygon class="st7" points="430.1,155.3 425.5,152.7 425.7,151.5 430.3,154.2 				"/>
				<polygon class="st7" points="408.5,151.5 406.3,150.2 406.5,149.1 408.7,150.4 				"/>
				<polygon class="st7" points="415,155.2 409.7,152.2 409.9,151 415.2,154.1 				"/>
				<polygon class="st7" points="421.5,159 416.2,155.9 416.4,154.8 421.7,157.9 				"/>
				<polygon class="st7" points="433.5,157.3 431.3,156 431.5,154.9 433.7,156.1 				"/>
				<polygon class="st7" points="440,161 434.6,157.9 434.8,156.8 440.1,159.9 				"/>
				<polygon class="st7" points="446.4,164.7 441.1,161.7 441.3,160.6 446.6,163.6 				"/>
				<polygon class="st7" points="410.8,158.6 405.5,155.5 405.7,154.4 411,157.5 				"/>
				<polygon class="st7" points="413.6,160.2 412,159.3 412.2,158.1 413.8,159.1 				"/>
				<polygon class="st7" points="416.4,161.8 414.8,160.9 415,159.8 416.6,160.7 				"/>
				<polygon class="st7" points="421.6,164.8 417.6,162.5 417.8,161.4 421.8,163.7 				"/>
				<polygon class="st7" points="427.4,159.5 425.8,158.6 426,157.5 427.6,158.4 				"/>
				<polygon class="st7" points="432.6,162.5 428.6,160.2 428.8,159.1 432.8,161.4 				"/>
				<polygon class="st7" points="433.7,163.2 429.7,160.8 429.9,159.7 433.9,162 				"/>
				<polygon class="st7" points="412.3,177.6 407.1,174.5 407.3,173.4 412.5,176.4 				"/>
				<polygon class="st7" points="415.8,179.6 413.4,178.2 413.6,177.1 416,178.5 				"/>
				<polygon class="st7" points="419.4,181.6 416.9,180.2 417.1,179.1 419.6,180.5 				"/>
				<polygon class="st7" points="425,184.9 420.5,182.3 420.6,181.1 425.2,183.8 				"/>
				<polygon class="st7" points="428.7,187 426.3,185.6 426.4,184.5 428.9,185.9 				"/>
				<polygon class="st7" points="434.4,190.3 429.8,187.6 430,186.5 434.6,189.2 				"/>
				<polygon class="st7" points="416.9,186 414.5,184.6 414.7,183.5 417.1,184.9 				"/>
				<polygon class="st7" points="422.6,189.3 418,186.6 418.2,185.5 422.8,188.1 				"/>
				<polygon class="st7" points="404.3,178.7 401.8,177.3 402,176.2 404.5,177.6 				"/>
				<polygon class="st7" points="407.8,180.7 405.4,179.3 405.6,178.2 408,179.6 				"/>
				<polygon class="st7" points="413.5,184 408.9,181.3 409.1,180.2 413.7,182.9 				"/>
				<polygon class="st7" points="408.8,178.4 406.7,177.2 406.8,176.1 409,177.3 				"/>
				<polygon class="st7" points="415.3,182.2 410,179.1 410.2,178 415.5,181.1 				"/>
				<polygon class="st7" points="421.8,185.9 416.5,182.9 416.7,181.7 422,184.8 				"/>
				<polygon class="st7" points="402.5,180.5 397.2,177.5 397.4,176.3 402.7,179.4 				"/>
				<polygon class="st7" points="405.3,182.1 403.7,181.2 403.8,180.1 405.5,181 				"/>
				<polygon class="st7" points="408.1,183.8 406.5,182.8 406.6,181.7 408.3,182.6 				"/>
				<polygon class="st7" points="413.3,186.8 409.3,184.4 409.5,183.3 413.5,185.6 				"/>
				<polygon class="st7" points="414.4,187.4 410.4,185.1 410.5,184 414.6,186.3 				"/>
				<polygon class="st7" points="404.9,170.4 403.2,169.4 403.4,168.3 405.1,169.3 				"/>
				<polygon class="st7" points="410.1,173.4 406.1,171.1 406.2,169.9 410.3,172.3 				"/>
				<polygon class="st7" points="415.4,176.4 411.4,174.1 411.5,173 415.6,175.3 				"/>
				<polygon class="st7" points="435.8,194 433.4,192.6 433.6,191.5 436,192.9 				"/>
				<polygon class="st7" points="441.5,197.3 436.9,194.6 437.1,193.5 441.7,196.2 				"/>
				<polygon class="st7" points="426.9,188.8 422.8,186.5 423,185.4 427,187.7 				"/>
				<polygon class="st7" points="432.2,191.9 428.1,189.6 428.3,188.5 432.3,190.8 				"/>
				<polygon class="st7" points="402,159.3 400.4,158.3 400.6,157.2 402.2,158.2 				"/>
				<polygon class="st7" points="407.2,162.3 403.2,160 403.4,158.8 407.4,161.2 				"/>
				<polygon class="st7" points="412.5,165.3 408.5,163 408.7,161.9 412.7,164.2 				"/>
			</g>
			<path class="st7" d="M492.6,206.2c-0.4,0-0.7-0.1-1.1-0.3l-32.5-18.7c-1.3-0.8-2.2-2.7-1.9-4.3l2.1-12.4c0.1-0.8,0.6-1.5,1.2-1.8
				c0.6-0.3,1.2-0.2,1.9,0.2l32.5,18.7c1.3,0.8,2.2,2.7,1.9,4.3l-2.1,12.4c-0.1,0.8-0.6,1.5-1.2,1.8
				C493.2,206.1,492.9,206.2,492.6,206.2z M461.2,168.9c-0.2,0-0.4,0-0.6,0.1c-0.5,0.2-0.8,0.8-0.9,1.4l-2.1,12.4
				c-0.2,1.4,0.5,3.2,1.7,3.8l32.5,18.7c0.5,0.3,1,0.3,1.5,0.1c0.5-0.2,0.8-0.8,0.9-1.4l2.1-12.4c0.2-1.4-0.5-3.2-1.7-3.8
				l-32.5-18.7C461.8,169,461.5,168.9,461.2,168.9z"/>
			<path class="st7" d="M489.1,227.4c-0.4,0-0.7-0.1-1.1-0.3l-32.5-18.7c-1.3-0.8-2.2-2.7-1.9-4.3l2.1-12.4c0.1-0.8,0.6-1.5,1.2-1.8
				c0.6-0.3,1.2-0.2,1.9,0.2l32.5,18.7c1.3,0.8,2.2,2.7,1.9,4.3l-2.1,12.4c-0.1,0.8-0.6,1.5-1.2,1.8
				C489.6,227.4,489.3,227.4,489.1,227.4z M488.2,226.7c0.5,0.3,1,0.3,1.5,0.1c0.5-0.2,0.8-0.8,0.9-1.4l2.1-12.4
				c0.2-1.4-0.5-3.2-1.7-3.8l-32.5-18.7c-0.5-0.3-1-0.3-1.5-0.1c-0.5,0.2-0.8,0.8-0.9,1.4l-2.1,12.4c-0.2,1.4,0.5,3.2,1.7,3.8
				L488.2,226.7z"/>
			
				<linearGradient id="SVGID_11_" gradientUnits="userSpaceOnUse" x1="612.9056" y1="182.1649" x2="659.5375" y2="202.1149" gradientTransform="matrix(1 0 0 1 -148.4279 0)">
				<stop  offset="0" style="stop-color:#42E8E0"/>
				<stop  offset="0.1055" style="stop-color:#37B6BF"/>
				<stop  offset="0.2197" style="stop-color:#2C87A1"/>
				<stop  offset="0.338" style="stop-color:#235F87"/>
				<stop  offset="0.4587" style="stop-color:#1C3F72"/>
				<stop  offset="0.5824" style="stop-color:#162561"/>
				<stop  offset="0.7105" style="stop-color:#121355"/>
				<stop  offset="0.8458" style="stop-color:#10084E"/>
				<stop  offset="1" style="stop-color:#0F054C"/>
			</linearGradient>
			<path class="st22" d="M462,185.8c0.6,0.3,1.1,0.2,1.3-0.3l3.8-10.3c0.4-1.2,2.2-0.1,2.6,1.6l2.3,10.4c0.2,0.8,0.7,1.5,1.3,1.9
				l0.6,0.3c0.5,0.3,1,0.2,1.2-0.2l0.8-1.6c0.5-1,2.1-0.1,2.5,1.5l0,0c0.2,0.7,0.7,1.4,1.3,1.7l0.5,0.3c0.6,0.3,1.1,0.2,1.3-0.3
				l0.7-2.2c0.4-1.2,2.2-0.2,2.6,1.5l2.3,9.6c0.2,0.8,0.7,1.5,1.3,1.8L462,185.8z"/>
			<path class="st7" d="M484.2,222.6c-0.6-0.4-1.2-1.2-1.4-2l-2.3-9.6c-0.2-1-1.1-1.8-1.7-1.8c-0.2,0-0.4,0.1-0.5,0.4l-0.7,2.2
				c-0.1,0.3-0.3,0.5-0.6,0.6c-0.3,0.1-0.7,0.1-1.1-0.2l-0.5-0.3c-0.6-0.4-1.2-1.1-1.4-1.9c-0.3-1-1.1-1.7-1.6-1.8
				c-0.2,0-0.4,0.1-0.5,0.3l-0.8,1.6c-0.1,0.3-0.3,0.4-0.6,0.5c-0.3,0.1-0.6,0-1-0.2l-0.6-0.3c-0.7-0.4-1.2-1.2-1.4-2l-2.3-10.4
				c-0.2-1-1.1-1.8-1.6-1.9c-0.2,0-0.4,0.1-0.5,0.3l-3.8,10.3c-0.1,0.3-0.3,0.5-0.6,0.6c-0.3,0.1-0.7,0.1-1-0.2l0.2-0.4
				c0.2,0.1,0.5,0.2,0.7,0.1c0.1,0,0.2-0.2,0.3-0.3l3.8-10.3c0.2-0.4,0.5-0.7,0.9-0.6c0.8,0,1.8,1,2.1,2.2l2.3,10.4
				c0.2,0.7,0.6,1.4,1.2,1.7l0.6,0.3c0.2,0.1,0.5,0.2,0.6,0.1c0.1,0,0.2-0.1,0.3-0.3l0.8-1.6c0.2-0.4,0.5-0.6,0.9-0.5
				c0.8,0.1,1.7,1,2,2.1c0.2,0.7,0.6,1.3,1.2,1.6l0.5,0.3c0.3,0.1,0.5,0.2,0.7,0.1c0.1-0.1,0.2-0.2,0.3-0.3l0.7-2.2
				c0.1-0.4,0.5-0.7,0.9-0.7c0,0,0,0,0,0c0.8,0,1.8,0.9,2.1,2.2l2.3,9.6c0.2,0.7,0.7,1.4,1.2,1.7L484.2,222.6z"/>
		</g>
		<path class="st7" d="M471.1,158.4c-0.5,0-1-0.1-1.4-0.4l-25.4-14.6c-1.6-0.9-2.4-3.1-2-4.9c0.2-0.9,0.8-1.6,1.5-1.9
			c0.7-0.3,1.6-0.2,2.3,0.2l25.4,14.6c1.6,0.9,2.4,3.1,2,4.9c-0.2,0.9-0.8,1.6-1.5,1.9C471.8,158.3,471.5,158.4,471.1,158.4z
			 M444.8,136.9c-0.3,0-0.5,0-0.7,0.1c-0.6,0.3-1.1,0.8-1.3,1.6c-0.4,1.6,0.3,3.5,1.7,4.3l25.4,14.6c0.6,0.4,1.3,0.4,1.9,0.2
			c0.6-0.3,1.1-0.8,1.3-1.6c0.4-1.6-0.3-3.5-1.7-4.3L446,137.2C445.6,137,445.2,136.9,444.8,136.9z"/>
	</g>
</g>
</svg>
